<svg width="141" height="59" viewBox="0 0 141 59" fill="none" xmlns="http://www.w3.org/2000/svg">
<path d="M77.1697 17H83.7313V37.1104C83.7313 39.3684 83.1908 41.3441 82.1099 43.0376C81.039 44.7311 79.5388 46.0517 77.6092 46.9992C75.6796 47.9367 73.4317 48.4054 70.8657 48.4054C68.2895 48.4054 66.0366 47.9367 64.107 46.9992C62.1774 46.0517 60.6772 44.7311 59.6063 43.0376C58.5354 41.3441 58 39.3684 58 37.1104V17H64.5616V36.5509C64.5616 37.7303 64.8193 38.7787 65.3345 39.696C65.8598 40.6133 66.5973 41.3341 67.547 41.8582C68.4966 42.3824 69.6028 42.6445 70.8657 42.6445C72.1386 42.6445 73.2448 42.3824 74.1844 41.8582C75.134 41.3341 75.8665 40.6133 76.3817 39.696C76.907 38.7787 77.1697 37.7303 77.1697 36.5509V17Z" fill="white"/>
<path d="M87.4886 47.9669V17H94.0503V30.6539H94.4594L105.628 17H113.493L101.976 30.8656L113.629 47.9669H105.779L97.2781 35.2354L94.0503 39.1668V47.9669H87.4886Z" fill="white"/>
<path d="M134.438 17H141V37.1104C141 39.3684 140.46 41.3441 139.379 43.0376C138.308 44.7311 136.807 46.0517 134.878 46.9992C132.948 47.9367 130.7 48.4054 128.134 48.4054C125.558 48.4054 123.305 47.9367 121.376 46.9992C119.446 46.0517 117.946 44.7311 116.875 43.0376C115.804 41.3441 115.269 39.3684 115.269 37.1104V17H121.83V36.5509C121.83 37.7303 122.088 38.7787 122.603 39.696C123.128 40.6133 123.866 41.3341 124.816 41.8582C125.765 42.3824 126.872 42.6445 128.134 42.6445C129.407 42.6445 130.513 42.3824 131.453 41.8582C132.403 41.3341 133.135 40.6133 133.65 39.696C134.176 38.7787 134.438 37.7303 134.438 36.5509V17Z" fill="white"/>
<path d="M24.9966 20.4358C24.9257 20.1628 24.7866 19.9008 24.7057 19.6551C24.6026 19.3433 24.4926 19.0337 24.3757 18.7261C24.302 18.5323 24.2239 18.3403 24.1457 18.1484C24.093 18.0201 24.003 17.8527 24.0211 17.7098C24.0566 17.4323 24.2866 17.1329 24.4157 16.8909C24.5666 16.607 24.7193 16.3232 24.8802 16.0438C24.9011 16.0074 25.0002 15.8673 24.9975 15.8673C24.9947 15.8673 25.0938 16.0074 25.1147 16.0447C25.2757 16.3232 25.4284 16.607 25.5793 16.8918C25.7084 17.1348 25.9429 17.4378 25.9738 17.7107C25.992 17.8536 25.9011 18.021 25.8493 18.1493C25.7702 18.3413 25.6929 18.5332 25.6193 18.727C25.5023 19.0346 25.3923 19.3445 25.2893 19.6569C25.2084 19.9017 25.0693 20.1674 24.9984 20.4367" fill="white"/>
<path d="M34.7435 28.8812C34.8589 28.9413 35.008 28.9886 35.1117 28.8649C35.1589 28.8085 35.1117 28.6401 35.088 28.5755C35.0822 28.5684 35.0776 28.5605 35.0744 28.5519C34.8192 28.5343 34.5632 28.5082 34.3062 28.4736C34.4202 28.6401 34.5695 28.7793 34.7435 28.8812Z" fill="white"/>
<path d="M42.5396 8.37358C42.5296 8.3936 42.5168 8.41725 42.5032 8.44273L42.4777 8.48913C42.4977 8.49914 42.5187 8.51097 42.5396 8.52371C43.0396 8.84263 43.5022 9.21682 43.9186 9.63921C44.6804 10.3999 45.2631 11.277 45.7367 12.0258C45.7658 12.0722 45.7922 12.1168 45.8204 12.1641C45.4971 11.2087 45.0355 10.3059 44.4504 9.48454C44.0038 8.86576 43.5096 8.28287 42.9723 7.74122L42.9277 7.69754C42.8768 7.78853 42.825 7.87952 42.7741 7.96232C42.6859 8.10335 42.6068 8.23619 42.5396 8.37358Z" fill="white"/>
<path d="M6.07453 9.63921C6.49094 9.21678 6.95353 8.84258 7.45357 8.52371C7.47448 8.51097 7.49538 8.49914 7.51538 8.48913L7.48902 8.44091C7.47539 8.41543 7.46266 8.39269 7.45357 8.37267C7.3863 8.23619 7.30721 8.10425 7.22358 7.96413C7.17176 7.87315 7.11994 7.78762 7.06813 7.69663L7.02358 7.7403C6.48803 8.28267 5.99536 8.86583 5.55 9.48454C4.96488 10.3059 4.50332 11.2087 4.18005 12.1641C4.20823 12.1177 4.2355 12.0731 4.26368 12.0258C4.73185 11.2733 5.31365 10.4008 6.07453 9.63921Z" fill="white"/>
<path d="M47.0939 15.5152C47.1067 15.5816 47.1158 15.648 47.1276 15.7144C47.4606 15.2989 47.7523 14.8519 47.9985 14.3797C48.2707 13.8874 48.4843 13.3649 48.6348 12.8229C48.7057 12.5635 48.7187 12.2917 48.673 12.0267C48.671 11.9948 48.6619 11.9637 48.6462 11.9357C48.6306 11.9078 48.6089 11.8837 48.5826 11.8654C48.5564 11.847 48.5264 11.8348 48.4948 11.8297C48.4633 11.8245 48.4309 11.8266 48.4003 11.8357C48.0639 11.9021 47.7448 12.1332 47.4621 12.317C47.0751 12.5729 46.7024 12.8499 46.3458 13.1468C46.4512 13.3761 46.5494 13.609 46.6376 13.8465C46.836 14.389 46.9886 14.9472 47.0939 15.5152Z" fill="white"/>
<path d="M14.9042 28.5755C14.8778 28.6401 14.8333 28.8075 14.8806 28.8649C14.9851 28.9886 15.1342 28.9404 15.2487 28.8803C15.4223 28.7782 15.5713 28.639 15.6851 28.4727C15.4281 28.5073 15.1721 28.5337 14.9169 28.5519C14.9141 28.5604 14.9097 28.5684 14.9042 28.5755Z" fill="white"/>
<path d="M3.36826 13.8474C3.45917 13.6099 3.55462 13.377 3.66007 13.1477C3.30342 12.8508 2.93075 12.5738 2.54375 12.3179C2.26103 12.1359 1.94195 11.903 1.6056 11.8357C1.57493 11.8267 1.54265 11.8248 1.51114 11.83C1.47963 11.8353 1.44969 11.8475 1.42353 11.8658C1.39736 11.8842 1.37564 11.9081 1.35995 11.936C1.34426 11.9638 1.33501 11.9948 1.33288 12.0267C1.28711 12.292 1.30014 12.5641 1.37106 12.8238C1.52157 13.3658 1.73515 13.8884 2.0074 14.3806C2.2536 14.8528 2.54528 15.2999 2.87828 15.7154C2.88919 15.6489 2.89919 15.5816 2.91192 15.5161C3.01715 14.9481 3.1698 14.3899 3.36826 13.8474Z" fill="white"/>
<path d="M48.2085 19.616C48.6447 19.2698 49.034 18.8682 49.3666 18.4213C49.4575 18.2894 49.7175 17.95 49.5866 17.7844C49.4557 17.6188 49.1993 17.6443 49.0093 17.6707C48.5335 17.7363 48.0644 17.844 47.6076 17.9928C47.7812 17.7835 48.0248 17.5733 48.1994 17.3386C48.4883 16.9674 48.7413 16.5695 48.9548 16.1503C49.0521 15.9483 49.1248 15.7372 49.2202 15.5352C49.3171 15.319 49.3623 15.0832 49.352 14.8464C49.3537 14.7939 49.3344 14.7428 49.2984 14.7045C49.1902 14.6062 49.0084 14.6963 48.9012 14.7491C48.7266 14.8355 48.5575 14.9374 48.3884 15.0339C48.1497 15.1685 47.9124 15.3065 47.6766 15.4479C47.5689 15.5198 47.4559 15.5833 47.3385 15.638C47.2638 15.6646 47.1922 15.699 47.1249 15.7408C47.2087 16.2369 47.2567 16.7383 47.2685 17.2412C47.3088 18.6601 47.0428 20.071 46.4885 21.3775C45.9053 22.7369 45.0957 23.9873 44.0941 25.0752C42.9486 26.3036 41.5369 27.0397 40.3069 27.5983C39.8364 27.8236 39.3503 28.0149 38.8524 28.1706C38.2416 28.3449 37.6164 28.4637 36.9843 28.5255C36.617 28.5621 36.2481 28.5804 35.8789 28.5801C35.6153 28.5801 35.3501 28.5707 35.0835 28.5519C35.1071 28.5755 35.1626 28.6611 35.1744 28.6692C35.2435 28.7338 35.3016 28.8075 35.3744 28.8685C35.5989 29.0569 36.4316 29.6938 36.5343 29.0505C36.5396 29.0032 36.533 28.9554 36.5152 28.9113C36.508 28.8894 36.4989 28.8676 36.4916 28.8458C36.4843 28.8239 36.4843 28.823 36.4825 28.8112C36.4816 28.8058 36.4816 28.8002 36.4825 28.7948C36.4825 28.7839 36.4961 28.7948 36.5007 28.7948L36.5234 28.8157L36.568 28.8576C36.6193 28.9023 36.6737 28.9433 36.7307 28.9804C36.908 29.0978 37.0643 29.2452 37.2616 29.3298C37.6297 29.4872 38.3724 29.4927 37.9525 28.9122C37.9589 28.9099 37.966 28.9099 37.9725 28.9122C38.0679 28.9613 38.1652 29.0368 38.2561 29.0942C38.5087 29.2478 38.7813 29.366 39.0661 29.4454C39.1695 29.485 39.2767 29.514 39.386 29.5318C39.9042 29.5819 39.8315 29.0614 39.5379 28.8039C39.7691 28.9162 40.0134 28.9993 40.2651 29.0514C40.5005 29.1114 40.7196 29.2088 40.9696 29.1651C41.0643 29.1581 41.1538 29.1189 41.2232 29.0541C41.3878 28.8721 41.1569 28.429 40.9823 28.3262C41.0791 28.3603 41.1785 28.3862 41.2796 28.4036C41.4451 28.4436 41.5969 28.4855 41.7669 28.5173C41.9717 28.5476 42.1793 28.5562 42.3859 28.5428C42.4677 28.5344 42.547 28.5103 42.6196 28.4718C42.9641 28.3062 42.6696 27.9586 42.4868 27.7812C42.3761 27.6731 42.2542 27.577 42.1232 27.4946C42.2311 27.5072 42.3382 27.5257 42.4441 27.5501C42.8556 27.6413 43.2834 27.6265 43.6877 27.5073C43.8322 27.4582 44.1913 27.3454 44.1013 27.1115C44.036 26.9755 43.929 26.8639 43.7959 26.7931C43.7481 26.7766 43.7023 26.7546 43.6595 26.7276C43.785 26.7667 44.0177 26.7167 44.1477 26.6957C44.5677 26.6275 45.0667 26.4683 45.3831 26.1744C45.7594 25.825 45.1531 25.6184 44.8677 25.6648C45.4131 25.5739 45.9276 25.2636 46.3694 24.9451C46.4976 24.8541 46.7558 24.654 46.7703 24.4811C46.7994 24.1399 46.4422 24.0835 46.1631 24.0726C46.067 24.0594 45.9701 24.0531 45.8731 24.0535C46.4858 23.8296 47.1094 23.3801 47.5803 22.9325C47.6343 22.8859 47.6811 22.8317 47.7194 22.7714C48.003 22.1627 47.2858 22.2483 46.9012 22.2983C47.083 22.2392 47.2339 22.079 47.3858 21.9662C47.7876 21.6669 48.4003 21.201 48.633 20.7397C48.7239 20.5532 49.0048 20.2038 48.8693 19.9763C48.7503 19.7752 47.9603 19.9654 47.7657 20.0036C47.9039 19.9636 48.0866 19.7133 48.2085 19.616Z" fill="white"/>
<path d="M13.0043 28.5255C12.3725 28.4636 11.7475 28.3449 11.1371 28.1706C10.6392 28.0146 10.1531 27.823 9.68258 27.5974C8.45171 27.0378 7.03904 26.2999 5.89635 25.0743C4.89495 23.9849 4.08587 22.7329 3.50371 21.3721C2.94958 20.0651 2.68354 18.654 2.72374 17.2348C2.73552 16.7319 2.78352 16.2305 2.86737 15.7345C2.79995 15.6926 2.72835 15.6578 2.65374 15.6307C2.53636 15.5764 2.42331 15.5131 2.31557 15.4415C2.07982 15.3008 1.84256 15.1625 1.60378 15.0266C1.4347 14.931 1.26561 14.8282 1.09107 14.7427C0.982895 14.6899 0.801083 14.5999 0.692905 14.6981C0.675012 14.717 0.661056 14.7393 0.651848 14.7637C0.642641 14.7881 0.638366 14.814 0.639271 14.8401C0.629017 15.0768 0.674153 15.3127 0.771084 15.5288C0.867445 15.7308 0.940169 15.9419 1.03653 16.1439C1.25 16.5632 1.50296 16.9611 1.79196 17.3322C1.96559 17.567 2.21012 17.7762 2.38375 17.9864C1.9261 17.8396 1.45643 17.7333 0.980168 17.6689C0.789266 17.6425 0.539275 17.6052 0.402007 17.7835C0.26474 17.9618 0.527457 18.293 0.621999 18.4204C0.955985 18.8678 1.34684 19.2698 1.78468 19.616C1.90741 19.7133 2.09013 19.9636 2.23921 20.0127C2.0474 19.9745 1.2547 19.7843 1.13562 19.9854C0.998349 20.2165 1.27743 20.5614 1.36834 20.7488C1.60105 21.2092 2.21285 21.6759 2.61556 21.9753C2.76647 22.0881 2.9201 22.2483 3.10009 22.3074C2.71374 22.2565 1.99649 22.1718 2.28194 22.7805C2.31964 22.8406 2.36623 22.8946 2.42012 22.9407C2.89101 23.3883 3.51098 23.8387 4.12733 24.0625C4.03032 24.0617 3.93339 24.0681 3.83734 24.0817C3.55917 24.0926 3.201 24.149 3.23009 24.4902C3.24463 24.6631 3.5028 24.8614 3.63098 24.9533C4.07278 25.2727 4.58549 25.5848 5.13274 25.6739C4.84821 25.6275 4.24096 25.8341 4.61731 26.1835C4.93366 26.4774 5.43546 26.6384 5.85272 26.7039C5.98271 26.7258 6.21634 26.7758 6.34088 26.7358C6.29832 26.7634 6.25253 26.7857 6.20452 26.8022C6.0712 26.8728 5.96411 26.9844 5.89908 27.1206C5.80817 27.3545 6.1718 27.4673 6.3127 27.5155C6.71667 27.6345 7.14408 27.6495 7.55538 27.5592C7.66107 27.5339 7.76825 27.5154 7.87628 27.5037C7.74529 27.5861 7.6234 27.6822 7.51266 27.7903C7.33085 27.9677 7.03449 28.3153 7.37994 28.48C7.45212 28.5194 7.53164 28.5436 7.61356 28.551C7.8202 28.5651 8.02776 28.5569 8.23263 28.5264C8.40172 28.4945 8.55444 28.4527 8.71988 28.4127C8.82098 28.3949 8.92042 28.3688 9.01715 28.3344C8.84352 28.4381 8.61171 28.8803 8.77625 29.0623C8.84571 29.1271 8.93518 29.1663 9.02987 29.1733C9.27987 29.2161 9.49895 29.1187 9.73439 29.0596C9.98599 29.0071 10.2302 28.924 10.4616 28.8121C10.168 29.0678 10.098 29.5882 10.6135 29.54C10.7227 29.5225 10.83 29.4938 10.9334 29.4545C11.2182 29.3751 11.4908 29.2569 11.7434 29.1033C11.8343 29.045 11.9316 28.9695 12.027 28.9213C12.0335 28.919 12.0406 28.919 12.047 28.9213C11.628 29.5018 12.3698 29.4963 12.7379 29.338C12.9352 29.2543 13.0915 29.1069 13.2688 28.9895C13.3261 28.9524 13.3804 28.911 13.4315 28.8658L13.4761 28.8239L13.4988 28.8039C13.5033 28.8039 13.5133 28.7884 13.517 28.8039C13.518 28.8093 13.518 28.8149 13.517 28.8203C13.517 28.8312 13.5106 28.843 13.5079 28.854C13.5052 28.8649 13.4924 28.8985 13.4843 28.9204C13.4664 28.9645 13.4598 29.0123 13.4652 29.0596C13.5688 29.7038 14.4015 29.0678 14.6251 28.8776C14.6969 28.8176 14.7551 28.7439 14.8242 28.6793C14.8333 28.6702 14.8888 28.5883 14.9151 28.5619C14.2783 28.604 13.639 28.5918 13.0043 28.5255Z" fill="white"/>
<path d="M35.0771 28.5464C35.0766 28.5472 35.0764 28.5482 35.0764 28.5492C35.0764 28.5501 35.0766 28.5511 35.0771 28.5519H35.089C35.0876 28.5501 35.0858 28.5486 35.0837 28.5476C35.0817 28.5467 35.0794 28.5463 35.0771 28.5464Z" fill="white"/>
<path d="M2.86919 15.7135V15.7354C2.89492 15.7524 2.91818 15.7729 2.93828 15.7963C2.91373 15.7699 2.89101 15.7417 2.86919 15.7135Z" fill="white"/>
<path d="M47.1276 15.7363L47.1276 15.7144C47.1058 15.7417 47.0849 15.7699 47.0621 15.7972C47.0812 15.7741 47.1032 15.7536 47.1276 15.7363Z" fill="white"/>
<path d="M14.906 28.5528H14.9133C14.9138 28.552 14.9141 28.551 14.9141 28.5501C14.9141 28.5491 14.9138 28.5482 14.9133 28.5473C14.9103 28.5482 14.9077 28.5501 14.906 28.5528Z" fill="white"/>
<path fill-rule="evenodd" clip-rule="evenodd" d="M34.8098 58.5559C35.4189 58.3075 36.2643 57.7798 36.3871 57.6988C37.3388 57.0619 38.1343 56.2303 38.9788 55.4632C43.0859 51.7328 46.0885 46.9632 47.9603 41.7369C48.7239 39.6041 49.442 37.3895 49.7548 35.1457C50.0202 33.2423 50.322 30.7638 49.1293 29.1178C48.4421 28.1706 47.7957 27.5283 45.9104 27.7949C44.3086 28.0214 43.9777 29.6537 43.8668 30.8684C43.6023 33.76 43.635 36.7398 43.2304 39.6533C43.0112 41.291 42.6657 42.9094 42.1969 44.4938C41.722 46.1237 41.0808 47.7003 40.2833 49.1988C39.3379 50.9421 38.1588 52.6563 37.1925 54.3168C36.7087 55.1436 36.1571 55.9288 35.5435 56.6643C35.288 56.9745 33.9762 58.1656 34.1899 58.6196C34.2462 58.7379 34.4962 58.6842 34.8098 58.5559Z" fill="white"/>
<path d="M28.651 1.54315C28.5446 1.5509 28.4413 1.58196 28.3483 1.63414C27.7001 2.12183 27.141 2.85883 26.692 3.45388C26.6283 3.53759 26.5501 3.62221 26.4747 3.7041C26.3687 3.80831 26.2753 3.92467 26.1965 4.05076C26.1667 4.10887 26.1165 4.15389 26.0555 4.17716C25.9945 4.20044 25.927 4.20032 25.8661 4.17684C25.8052 4.15336 25.7552 4.10817 25.7255 4.04996C25.6959 3.99175 25.6888 3.92463 25.7056 3.86151C25.7056 3.7041 25.7111 3.54396 25.7165 3.37382C25.7347 2.76875 25.7538 2.14276 25.5865 1.64505L25.5693 1.59319C25.4193 1.13825 25.3666 1.02088 25.0511 1.02088C24.7357 1.02088 24.682 1.14007 24.532 1.5941L24.5157 1.64414C24.3484 2.14639 24.3675 2.77148 24.3857 3.37291C24.3911 3.54214 24.3957 3.70319 24.3966 3.8606C24.4134 3.92372 24.4063 3.99084 24.3767 4.04905C24.3471 4.10726 24.297 4.15245 24.2361 4.17593C24.1752 4.19941 24.1077 4.19953 24.0468 4.17625C23.9858 4.15298 23.9355 4.10796 23.9057 4.04985C23.8269 3.92377 23.7335 3.80742 23.6275 3.70319C23.5521 3.6213 23.4739 3.53668 23.4103 3.45298C22.9366 2.8288 22.4003 2.12092 21.753 1.63323C21.6598 1.58169 21.5566 1.55067 21.4503 1.54224C21.3667 1.5226 21.2796 1.52396 21.1966 1.54618C21.1137 1.56841 21.0375 1.61081 20.9749 1.66962C20.9157 1.73871 20.8743 1.82132 20.8545 1.91018C20.8347 1.99903 20.837 2.09141 20.8613 2.17915C20.9849 2.79786 21.4067 3.34379 21.8612 3.89517C22.3158 4.44656 22.7539 5.01432 23.1794 5.5657L23.2421 5.64759C23.353 5.79226 23.4793 5.93147 23.6139 6.07796C23.9066 6.40006 24.2102 6.73307 24.3802 7.15799C24.5093 7.48008 24.5239 7.8686 24.5366 8.21162C24.542 8.35083 24.5466 8.48458 24.5584 8.60105C24.5702 8.71751 24.5757 8.87401 24.5811 9.02323C24.6002 9.55369 24.6229 10.2124 24.9757 10.4099L25.0547 10.4335L25.1338 10.4099C25.4865 10.2124 25.5093 9.55369 25.5284 9.02323C25.5338 8.87128 25.5384 8.72752 25.5511 8.60105C25.5638 8.47457 25.5675 8.35083 25.5729 8.21162C25.5856 7.8686 25.6002 7.48372 25.7293 7.15799C25.8993 6.73307 26.202 6.40006 26.4956 6.07796C26.6292 5.93056 26.7565 5.79135 26.8674 5.64759L26.9274 5.57025C27.3528 5.01705 27.7928 4.44565 28.2483 3.89517C28.7037 3.3447 29.1228 2.79877 29.2482 2.18006C29.2726 2.09218 29.2749 1.99965 29.2551 1.91063C29.2353 1.82162 29.1939 1.73885 29.1346 1.66962C29.0711 1.6095 28.9935 1.56639 28.909 1.54428C28.8245 1.52217 28.7357 1.52178 28.651 1.54315Z" fill="white"/>
<path d="M26.2511 3.15818L26.2711 3.1327C26.4083 2.95072 26.5556 2.75783 26.7129 2.56039H26.662L26.252 2.54947C26.2574 2.75328 26.2556 2.95891 26.2511 3.15818Z" fill="white"/>
<path d="M36.5198 4.26367C34.2953 3.4648 31.9672 2.99895 29.6173 2.75601C29.4046 3.29011 29.0391 3.75687 28.6501 4.23274C28.201 4.77866 27.7637 5.3437 27.341 5.89326L27.281 5.9706C27.1565 6.13165 27.0165 6.28542 26.882 6.43463C26.6092 6.73489 26.3502 7.01877 26.2156 7.35543C26.1247 7.592 26.1083 7.91773 26.0974 8.23255C26.092 8.37995 26.0865 8.52007 26.0729 8.65473C26.062 8.76482 26.0574 8.89949 26.052 9.04325C26.0293 9.68744 25.9983 10.5691 25.3484 10.8939C25.3346 10.9006 25.3203 10.9061 25.3056 10.9103L25.1238 10.964C25.0743 10.9789 25.0215 10.9789 24.972 10.964L24.7902 10.9103C24.7755 10.9058 24.7612 10.9 24.7475 10.893C24.0966 10.5673 24.0657 9.68562 24.0439 9.04234C24.0384 8.89858 24.0339 8.76392 24.023 8.65382C24.0093 8.51916 24.0048 8.38086 23.9993 8.23164C23.9875 7.91682 23.9757 7.59473 23.8812 7.35452C23.7466 7.01877 23.4884 6.73489 23.2148 6.43463C23.0794 6.28542 22.9421 6.13165 22.8148 5.9706L22.7521 5.88871C22.3303 5.34278 21.894 4.77411 21.4458 4.23274C21.0585 3.75778 20.6913 3.28374 20.4795 2.74691C18.095 2.98621 15.7314 3.45297 13.4733 4.26367L13.1952 4.36558C13.697 4.58031 14.2415 4.7823 14.8488 4.97974C15.3033 5.12714 15.766 5.26272 16.2123 5.39374C17.6577 5.81592 19.1522 6.25357 20.504 7.13251C22.0694 8.15157 23.453 9.64649 24.7329 11.7046C24.8238 11.8457 24.9084 11.9894 24.9947 12.1359C25.0793 11.9931 25.1666 11.8493 25.2566 11.7046C26.5365 9.6474 27.9192 8.15612 29.4855 7.1316C30.8373 6.25266 32.3318 5.81592 33.7772 5.39283C34.2253 5.26181 34.6862 5.12624 35.1407 4.97884C35.748 4.78139 36.2916 4.5794 36.7943 4.36467L36.5198 4.26367Z" fill="white"/>
<path d="M23.8493 3.15818C23.8439 2.95709 23.8421 2.75055 23.8493 2.54492C23.6948 2.54795 23.5403 2.5522 23.3857 2.55766C23.5439 2.75601 23.6921 2.95163 23.8302 3.13361L23.8493 3.15818Z" fill="white"/>
<path fill-rule="evenodd" clip-rule="evenodd" d="M15.186 58.5559C14.5769 58.3066 13.7315 57.7798 13.6088 57.6988C12.657 57.0619 11.8616 56.2294 11.0171 55.4623C6.90995 51.7318 3.90733 46.9632 2.03558 41.7369C1.27197 39.6041 0.553819 37.3895 0.241103 35.1448C-0.0243415 33.2414 -0.326148 30.7629 0.866536 29.1178C1.55378 28.1697 2.20012 27.5283 4.08551 27.7949C5.68727 28.0214 6.01817 29.6537 6.12907 30.8684C6.3927 33.7591 6.36088 36.7398 6.76541 39.6533C6.98463 41.291 7.33019 42.9094 7.79901 44.4938C8.27399 46.1236 8.91522 47.7003 9.71258 49.1988C10.658 50.9421 11.837 52.6563 12.8034 54.3168C13.2872 55.1433 13.8387 55.9282 14.4524 56.6634C14.7078 56.9745 16.0196 58.1656 15.806 58.6196C15.7469 58.7379 15.496 58.6842 15.186 58.5559Z" fill="white"/>
<path d="M24.9966 29.3762C24.8675 29.1797 24.8075 28.884 24.7129 28.6656C24.5954 28.3963 24.4793 28.1264 24.3648 27.8558C24.1424 27.3287 23.9263 26.7992 23.7166 26.2672C23.3775 25.4028 23.1248 24.4019 23.3675 23.4811C23.5493 22.8133 23.9721 21.7224 24.6566 21.4603C24.766 21.4265 24.8794 21.4076 24.9938 21.4039C25.1079 21.4081 25.221 21.427 25.3302 21.4603C26.0156 21.7224 26.442 22.8142 26.6192 23.4811C26.8683 24.4019 26.6156 25.4028 26.2765 26.2672C26.0668 26.7998 25.8508 27.3293 25.6284 27.8558C25.5138 28.127 25.3978 28.3969 25.2802 28.6656C25.1847 28.884 25.1247 29.1806 24.9966 29.3762Z" fill="white"/>
<path d="M46.6349 17.2512C46.6232 16.7085 46.5667 16.1677 46.4658 15.6344C46.3649 15.1012 46.2196 14.5774 46.0313 14.0685C45.8434 13.5621 45.6122 13.0729 45.3404 12.6063C45.2931 12.5256 45.2443 12.445 45.194 12.3643C44.7395 11.6418 44.185 10.8066 43.4668 10.0896C43.0844 9.70109 42.6597 9.35682 42.2005 9.06326C42.1878 9.05507 42.1732 9.04871 42.1578 9.04143C42.0143 8.98627 41.8975 8.87815 41.8314 8.73935C41.7405 8.51188 41.8614 8.28441 41.9432 8.1361C41.9523 8.11881 41.9614 8.10334 41.9678 8.0897C42.0469 7.93047 42.1359 7.78034 42.2223 7.63476C42.2868 7.52648 42.3477 7.42458 42.4041 7.31994C42.4287 7.27445 42.4514 7.22896 42.4732 7.18255C42.8129 6.48159 43.0868 5.75055 43.2914 4.99885C43.4732 4.2937 43.455 3.52031 43.4359 2.77239V2.71325C43.4322 2.32909 43.3987 1.9458 43.3359 1.5668C43.2695 1.20285 43.1914 0.860742 43.085 0.454938C43.0414 0.28843 43.0077 0.14285 42.9814 0C42.8905 0.122833 42.7905 0.236568 42.6968 0.341203C42.6277 0.418543 42.5632 0.492242 42.515 0.559573C42.2678 0.878939 42.0032 1.19649 41.7478 1.49492L41.5187 1.76789C41.3277 1.98686 41.1227 2.19323 40.9051 2.38569C40.8033 2.47668 40.7069 2.56767 40.6142 2.65865C39.7478 3.50939 38.6833 4.21454 37.3598 4.81233C36.7036 5.10533 36.0316 5.3617 35.3471 5.58026C34.8844 5.73039 34.4153 5.86687 33.9626 5.99971C32.4972 6.42827 31.1127 6.83316 29.84 7.66115C28.3537 8.62925 27.0338 10.0605 25.8047 12.0358C25.6475 12.2897 25.4956 12.5435 25.3566 12.7892C25.3435 12.812 25.3276 12.8331 25.3093 12.852L25.232 12.9321C25.2023 12.9629 25.1667 12.9874 25.1274 13.0041C25.088 13.0208 25.0457 13.0294 25.0029 13.0294C24.9595 13.031 24.9162 13.0237 24.8757 13.0079C24.8352 12.9921 24.7984 12.9681 24.7675 12.9375L24.6902 12.8574C24.6719 12.8383 24.656 12.8169 24.6429 12.7937C24.4966 12.5381 24.3457 12.2842 24.1948 12.0413C22.9648 10.0641 21.6449 8.63289 20.1595 7.6657C18.8868 6.83771 17.5023 6.43282 16.0369 6.00426C15.5824 5.87233 15.116 5.7313 14.6533 5.58481C13.9688 5.36655 13.2969 5.11048 12.6407 4.81779C11.3152 4.21727 10.2507 3.51303 9.38622 2.66411C9.29532 2.57313 9.19714 2.48214 9.09533 2.39115C8.87734 2.19843 8.67207 1.99175 8.4808 1.77244L8.23081 1.47309C7.98173 1.17829 7.72447 0.87348 7.48266 0.563213C7.43084 0.495882 7.36539 0.423092 7.30085 0.344842C7.20994 0.240207 7.10722 0.126473 7.01631 0.00363958C6.99086 0.141941 6.95722 0.28843 6.91268 0.458577C6.80632 0.860741 6.73087 1.20285 6.66178 1.57044C6.59894 1.94944 6.56551 2.33273 6.56178 2.71689V2.77603C6.54269 3.52304 6.52269 4.29643 6.70632 5.00249C6.91107 5.75412 7.18496 6.48515 7.52448 7.18619C7.54629 7.23169 7.56993 7.27718 7.59538 7.3254C7.65083 7.42913 7.71174 7.53194 7.77719 7.64113C7.86355 7.7858 7.95173 7.93411 8.03082 8.09607L8.05536 8.14156C8.13718 8.29169 8.26081 8.51825 8.16718 8.74572C8.10112 8.88457 7.98429 8.99272 7.84083 9.0478C7.82623 9.05435 7.81197 9.06164 7.7981 9.06963C7.3386 9.36313 6.91352 9.70741 6.53087 10.096C5.81454 10.812 5.25819 11.6428 4.80366 12.3707C4.75367 12.4507 4.70549 12.5317 4.65822 12.6118C4.38658 13.0784 4.15573 13.5676 3.96824 14.0739C3.77963 14.5825 3.63397 15.106 3.5328 15.6389C3.43192 16.1723 3.37536 16.7131 3.36372 17.2558C3.32559 18.5824 3.57364 19.9017 4.09096 21.1237C4.64372 22.4181 5.41221 23.6091 6.36361 24.6458C7.42721 25.7868 8.71534 26.4655 9.94802 27.0233C10.3913 27.2356 10.8491 27.4162 11.318 27.5637C11.8916 27.7273 12.4788 27.8388 13.0725 27.8968C14.0487 27.9915 15.0332 27.9548 15.9996 27.7876C16.179 27.7213 16.3664 27.6791 16.5569 27.662C16.6414 27.6511 16.7205 27.6402 16.7914 27.6256L16.8823 27.6038C17.6587 27.3935 18.4184 27.1255 19.155 26.8022L19.3486 26.7112C19.7022 26.5365 20.0604 26.329 20.4067 26.1289L20.4649 26.0952C20.8101 25.8801 21.1413 25.6433 21.4567 25.3864L21.6385 25.239C21.833 25.0816 22.0221 24.9269 22.2021 24.7613L22.2767 24.6749C22.3221 24.6321 22.3676 24.5885 22.4139 24.5475L22.4457 24.5202C22.4612 24.5066 22.4821 24.4893 22.4912 24.4793C22.5195 24.3833 22.5333 24.2836 22.5321 24.1836C22.5321 24.1181 22.5385 24.0525 22.5457 23.9898C22.6648 22.9188 23.1257 21.9061 23.8084 21.2119C23.8929 21.1301 23.9842 21.0555 24.0811 20.989C24.1863 20.9277 24.2754 20.8422 24.3411 20.7397C24.4093 20.5914 24.292 20.312 24.2366 20.1783L24.1948 20.08L24.1666 20.0136L23.5303 18.4786C23.5139 18.4395 23.4957 18.3995 23.4766 18.3595C23.3857 18.1511 23.263 17.8918 23.3057 17.6043C23.3533 17.3652 23.4439 17.1368 23.573 16.93C23.5993 16.8827 23.6248 16.8391 23.6493 16.789L24.043 16.0274C24.1057 15.9055 24.1775 15.7918 24.2466 15.6817C24.3157 15.5716 24.3802 15.4688 24.4284 15.3651C24.213 15.0011 24.0521 14.7072 24.0893 14.4552C24.0974 14.3862 24.1224 14.3203 24.1623 14.2634C24.2021 14.2066 24.2555 14.1605 24.3175 14.1294C24.3922 14.0968 24.474 14.084 24.5551 14.0923C24.6361 14.1006 24.7137 14.1297 24.7802 14.1768C24.8626 14.2292 24.9364 14.294 24.9993 14.3687C25.0618 14.2942 25.1354 14.2297 25.2175 14.1777C25.2835 14.1304 25.3607 14.101 25.4415 14.0924C25.5222 14.0838 25.6038 14.0962 25.6784 14.1285C25.7409 14.1596 25.7948 14.2059 25.8349 14.2631C25.8751 14.3203 25.9003 14.3866 25.9084 14.4561C25.9456 14.7081 25.7847 15.002 25.5693 15.366C25.622 15.4697 25.6874 15.5743 25.7511 15.6826C25.8147 15.7909 25.892 15.9064 25.9547 16.0284L26.3483 16.7899C26.372 16.8363 26.3983 16.8809 26.4238 16.93C26.5531 17.1374 26.644 17.3664 26.692 17.6061C26.7356 17.8927 26.6165 18.152 26.522 18.3604C26.5029 18.4013 26.4847 18.4413 26.4683 18.4805L25.832 20.0145L25.7629 20.1792C25.7065 20.3148 25.5893 20.5932 25.6574 20.7424C25.7232 20.845 25.8123 20.9304 25.9174 20.9917C26.0144 21.0583 26.1056 21.1328 26.1902 21.2146C26.8738 21.9089 27.3338 22.9216 27.4528 23.9934C27.4601 24.0598 27.4637 24.1244 27.4665 24.1872C27.4653 24.2869 27.4788 24.3862 27.5065 24.482C27.5156 24.492 27.5365 24.5102 27.5519 24.5229L27.5837 24.5512C27.6301 24.593 27.6747 24.634 27.7174 24.6758L27.8019 24.7559C27.9837 24.9224 28.171 25.0771 28.3646 25.2336L28.531 25.3682L28.5464 25.381C28.8624 25.6382 29.1942 25.8753 29.54 26.0907C29.9037 26.3036 30.2818 26.5219 30.6564 26.7066C30.7206 26.7382 30.7848 26.7685 30.8491 26.7976C31.5363 27.1134 32.2545 27.3436 33.1217 27.6001L33.2126 27.6229C33.2808 27.6365 33.3563 27.6465 33.4363 27.6566C33.628 27.6737 33.8166 27.7162 33.9971 27.783C34.9636 27.9503 35.9481 27.987 36.9243 27.8922C37.5183 27.8342 38.1058 27.7228 38.6797 27.5592C39.1483 27.4117 39.6057 27.2311 40.0487 27.0187C41.2214 26.4865 42.5641 25.7877 43.6332 24.6412C44.5846 23.6045 45.353 22.4135 45.9058 21.1191C46.424 19.8973 46.6727 18.578 46.6349 17.2512ZM22.2939 18.0328C22.1121 19.9781 21.2749 21.7633 19.9913 22.9225C18.5559 24.2227 16.5114 24.9342 14.446 24.9342C13.6113 24.9382 12.7804 24.8202 11.9798 24.5839C10.41 24.1161 9.02206 23.1761 8.00446 21.8916C7.19454 20.8509 6.69082 19.6046 6.54996 18.293C6.24634 15.4852 7.66083 12.7373 10.148 11.2997C11.2974 10.6386 12.5889 10.2641 13.9133 10.2079C16.8805 10.0787 19.8086 11.58 21.374 14.0294C22.1212 15.2013 22.4312 16.5488 22.2939 18.0328ZM43.4468 18.2894C43.3063 19.6011 42.8025 20.8474 41.9923 21.8879C40.9744 23.1746 39.585 24.116 38.0134 24.5839C37.2114 24.8235 36.3786 24.9443 35.5416 24.9424C33.4817 24.9424 31.4372 24.2309 30.0018 22.9316C28.7182 21.7633 27.8783 19.9827 27.6983 18.0328C27.5628 16.5661 27.8801 15.1804 28.6192 14.0294C30.1846 11.58 33.1117 10.0787 36.0798 10.2079C37.404 10.2642 38.6951 10.6387 39.8442 11.2997C42.3314 12.7373 43.7468 15.4852 43.4468 18.293V18.2894Z" fill="white"/>
<path d="M30.9209 44.0643H31.5727C31.5945 43.8978 31.6127 43.7431 31.6372 43.5885C31.6581 43.4593 31.6936 43.3419 31.859 43.3228C31.8935 43.3174 31.9286 43.3189 31.9624 43.3272C31.9963 43.3355 32.0281 43.3505 32.0561 43.3712C32.0841 43.3919 32.1077 43.418 32.1255 43.448C32.1434 43.478 32.1551 43.5112 32.1599 43.5457C32.1947 43.7157 32.2187 43.8877 32.2318 44.0607L32.709 44.0179C32.8072 43.7623 32.7363 43.4402 33.0508 43.2682C33.3599 43.3947 33.2008 43.7277 33.3363 43.9679C33.559 43.9679 33.8008 43.9679 34.0417 43.9679C34.1895 43.9541 34.3381 43.952 34.4862 43.9615C34.7689 44.0061 34.9671 43.8869 35.1617 43.7004C35.9022 42.9883 36.6492 42.2825 37.4025 41.5831C37.5294 41.4729 37.6734 41.3841 37.8288 41.3201C37.8925 41.288 37.9662 41.2821 38.0342 41.3037C38.1022 41.3253 38.159 41.3727 38.1924 41.4357C38.2348 41.4913 38.2566 41.5599 38.2539 41.6298C38.2513 41.6997 38.2244 41.7665 38.1779 41.8188C38.0979 41.917 38.0143 42.0144 37.9252 42.1045C37.3688 42.671 36.811 43.2366 36.2516 43.8014C36.1253 43.9288 35.9907 44.0498 35.8698 44.1835C35.7489 44.3173 35.7416 44.4565 35.8698 44.6002C35.9689 44.7094 36.0843 44.805 36.188 44.9105C36.7673 45.4983 37.3461 46.0873 37.9243 46.6775C38.0129 46.7685 38.0967 46.8642 38.1752 46.9641C38.2202 47.0173 38.2459 47.0843 38.2481 47.154C38.2502 47.2238 38.2287 47.2922 38.187 47.3481C38.1548 47.4046 38.1027 47.4473 38.041 47.4677C37.9792 47.4882 37.9121 47.4851 37.8525 47.4591C37.6944 47.4047 37.5474 47.3221 37.4188 47.2152C37.0952 46.9268 36.7916 46.6156 36.4762 46.3172C36.0134 45.8813 35.5444 45.4519 35.0844 45.0124C35.016 44.9402 34.9318 44.8849 34.8384 44.8508C34.745 44.8167 34.645 44.8048 34.5462 44.8159C34.2501 44.8257 33.9536 44.8196 33.6581 44.7977C33.5435 44.7977 33.4299 44.7977 33.3117 44.7977C33.2921 44.9664 33.2638 45.1341 33.2272 45.2999C33.2182 45.3381 33.2008 45.3737 33.1762 45.4043C33.1517 45.4348 33.1206 45.4595 33.0854 45.4765C33.0459 45.4745 33.0074 45.4635 32.9729 45.4442C32.9383 45.425 32.9087 45.398 32.8863 45.3655C32.8347 45.2739 32.7982 45.1747 32.7781 45.0716C32.7508 44.9715 32.7381 44.8678 32.7172 44.7567L32.239 44.7185C32.2263 44.795 32.2136 44.8632 32.2036 44.9314C32.198 45.0263 32.1849 45.1207 32.1645 45.2135C32.1227 45.3473 32.0618 45.4737 31.8827 45.4619C31.7036 45.4501 31.6527 45.3336 31.6345 45.1835C31.6163 45.0333 31.5991 44.8914 31.5791 44.7285H30.9127C30.8991 44.8377 30.8873 44.9405 30.8718 45.0434C30.8667 45.1278 30.8486 45.211 30.8182 45.2899C30.8037 45.3211 30.7823 45.3486 30.7557 45.3703C30.7291 45.392 30.6979 45.4075 30.6645 45.4155C30.5883 45.3938 30.5232 45.3436 30.4827 45.2754C30.4557 45.2066 30.4413 45.1336 30.44 45.0597C30.4227 44.9569 30.4055 44.8541 30.3836 44.7213C30.0682 44.7213 29.7646 44.7213 29.4609 44.7213C29.2809 44.7269 29.1006 44.723 28.921 44.7094C28.7092 44.6849 28.5792 44.5538 28.5755 44.3973C28.5719 44.2408 28.6855 44.1162 28.9055 44.078C29.0203 44.0584 29.1364 44.0484 29.2528 44.048C29.6209 44.048 29.99 44.048 30.3909 44.048C30.4055 43.9515 30.4218 43.8396 30.4391 43.7277C30.4398 43.6537 30.4533 43.5804 30.4791 43.5111C30.4962 43.4759 30.5203 43.4445 30.55 43.419C30.5798 43.3935 30.6144 43.3744 30.6518 43.3628C30.6902 43.371 30.7258 43.3887 30.7555 43.4143C30.7852 43.4399 30.808 43.4726 30.8218 43.5093C30.8642 43.6924 30.8967 43.8777 30.9191 44.0643" fill="white"/>
<path d="M25.2629 51.7027L25.3075 52.1759C25.4254 52.1903 25.5424 52.2125 25.6574 52.2423C25.7558 52.2706 25.8482 52.3165 25.9302 52.3778C26.0902 52.5061 26.0638 52.639 25.8684 52.6881C25.7065 52.7291 25.5375 52.7445 25.3547 52.7727C25.3547 53.1303 25.3856 53.4815 25.3466 53.8255C25.2993 54.2476 25.5111 54.5133 25.7784 54.7881C26.4292 55.456 27.0629 56.1393 27.701 56.8199C27.7969 56.9187 27.8813 57.0279 27.9528 57.1456C28.061 57.3276 28.0301 57.5414 27.9037 57.6369C27.7537 57.7498 27.6056 57.737 27.4228 57.5714C27.2401 57.4058 27.091 57.2448 26.9256 57.081C26.3523 56.5151 25.779 55.95 25.2056 55.3859C24.9975 55.1803 24.8748 55.1775 24.6684 55.3859C23.9987 56.0495 23.33 56.714 22.6621 57.3794C22.5641 57.4756 22.4613 57.5667 22.3539 57.6524C22.3035 57.6928 22.2413 57.7155 22.1768 57.7171C22.1123 57.7188 22.049 57.6992 21.9967 57.6615C21.9378 57.6338 21.8912 57.5854 21.8659 57.5254C21.8405 57.4654 21.8382 57.3982 21.8594 57.3367C21.9062 57.187 21.9812 57.0477 22.0803 56.9263C22.4058 56.5624 22.7539 56.2212 23.0866 55.8663C23.5145 55.4108 23.9387 54.9516 24.3593 54.4888C24.4297 54.4251 24.4781 54.3406 24.4975 54.2476C24.5102 53.7618 24.5039 53.275 24.5039 52.7918C24.2802 52.6699 23.973 52.8064 23.8121 52.538C23.9548 52.2013 24.2857 52.2577 24.5584 52.1659L24.6111 51.6882C24.512 51.68 24.4293 51.6754 24.3475 51.6636C24.2536 51.6527 24.1606 51.6348 24.0693 51.6099C24.0063 51.5969 23.9504 51.5607 23.9127 51.5085C23.875 51.4563 23.8582 51.3918 23.8657 51.3279C23.8739 51.175 23.9811 51.1313 24.0966 51.1086C24.2611 51.0758 24.4284 51.0594 24.6075 51.034V50.3834C24.4939 50.367 24.372 50.3525 24.2511 50.3325C24.167 50.3271 24.0844 50.3077 24.0066 50.2751C23.9767 50.2572 23.9511 50.2328 23.9319 50.2037C23.9127 50.1745 23.9003 50.1414 23.8957 50.1068C23.9037 50.0733 23.9199 50.0422 23.9427 50.0163C23.9655 49.9905 23.9943 49.9706 24.0266 49.9585C24.2084 49.9085 24.3984 49.883 24.5948 49.8457C24.5948 49.5036 24.5948 49.1687 24.5948 48.8339C24.5932 48.6547 24.6069 48.4757 24.6357 48.2989C24.6441 48.2291 24.6771 48.1647 24.7287 48.1172C24.7804 48.0696 24.8473 48.0421 24.9175 48.0396C24.9874 48.0351 25.0566 48.0561 25.1123 48.0988C25.1679 48.1414 25.2063 48.2028 25.2202 48.2716C25.2476 48.3625 25.2617 48.4569 25.262 48.5518C25.262 48.9749 25.262 49.398 25.262 49.8429L25.7665 49.9339C25.8802 49.953 25.9738 49.994 25.9674 50.1323C25.962 50.2524 25.872 50.2933 25.7747 50.3143C25.6093 50.3425 25.442 50.3597 25.2675 50.3834V51.0376C25.4493 51.0658 25.6165 51.0877 25.7811 51.1204C25.902 51.1441 25.9983 51.1996 26.0029 51.3479C26.0091 51.4069 25.9932 51.4661 25.9582 51.514C25.9233 51.5619 25.8718 51.5951 25.8138 51.6072C25.6429 51.6509 25.4656 51.6727 25.2566 51.71" fill="white"/>
<path d="M25.3456 36.0192C25.51 36.0309 25.6736 36.0518 25.8356 36.082C25.8745 36.0917 25.9108 36.1097 25.9422 36.1346C25.9735 36.1596 25.9992 36.191 26.0174 36.2267C26.0154 36.2646 26.0041 36.3015 25.9844 36.3341C25.9648 36.3666 25.9374 36.3938 25.9047 36.4132C25.7293 36.4987 25.5411 36.5579 25.3056 36.6479L25.2611 37.1029C25.3938 37.1138 25.4993 37.112 25.6002 37.1311C25.7046 37.1428 25.806 37.1736 25.8993 37.2221C25.9382 37.2449 25.9695 37.2787 25.9895 37.3193C26.0094 37.3598 26.017 37.4053 26.0114 37.4501C26.0058 37.4949 25.9872 37.5371 25.9579 37.5714C25.9286 37.6058 25.8899 37.6308 25.8465 37.6433C25.662 37.6898 25.4746 37.7245 25.2856 37.7471V38.3976C25.4202 38.4186 25.5638 38.4422 25.7084 38.4613C25.8393 38.4795 25.9811 38.4977 25.9711 38.6715C25.9656 38.8262 25.8374 38.838 25.7184 38.8535C25.5738 38.8744 25.4302 38.9035 25.2702 38.9308C25.2702 39.2666 25.2702 39.5832 25.2702 39.8998C25.2737 40.09 25.2619 40.2802 25.2347 40.4685C25.2278 40.5444 25.1923 40.6149 25.1354 40.6656C25.0786 40.7163 25.0045 40.7434 24.9284 40.7415C24.8541 40.7338 24.7844 40.7014 24.7307 40.6494C24.677 40.5975 24.6422 40.5289 24.632 40.4549C24.6178 40.3928 24.6105 40.3293 24.6102 40.2656C24.6102 39.8334 24.6102 39.4012 24.6102 38.9381L24.123 38.8471C24.0157 38.828 23.9002 38.8025 23.8975 38.6697C23.8948 38.5368 24.0011 38.4768 24.1302 38.4613C24.2875 38.4431 24.4439 38.4204 24.6129 38.3967V37.738C24.5111 37.7252 24.4202 37.7161 24.3302 37.7007C24.2253 37.6928 24.122 37.6707 24.023 37.6352C23.9874 37.6173 23.9564 37.5917 23.9321 37.5602C23.9079 37.5287 23.8911 37.4921 23.883 37.4532C23.8818 37.4084 23.8902 37.364 23.9078 37.3228C23.9254 37.2817 23.9516 37.2448 23.9848 37.2148C24.0873 37.1618 24.199 37.1291 24.3139 37.1183C24.4137 37.1049 24.5141 37.0967 24.6148 37.0938L24.5657 36.6034C24.3039 36.5206 23.9902 36.5733 23.8275 36.254C23.9393 35.93 24.282 36.1202 24.5139 35.9746C24.5139 35.6753 24.4902 35.3568 24.5193 35.0447C24.5602 34.6089 24.4102 34.2877 24.0984 33.9793C23.4212 33.3087 22.7794 32.6026 22.1321 31.902C22.0241 31.7743 21.937 31.6303 21.874 31.4753C21.8422 31.411 21.8369 31.3368 21.8594 31.2687C21.8819 31.2006 21.9302 31.1441 21.9939 31.1113C22.0509 31.0708 22.1198 31.0507 22.1895 31.0542C22.2593 31.0576 22.3258 31.0845 22.3785 31.1305C22.4985 31.2342 22.6148 31.3434 22.7294 31.4544C23.0648 31.7783 23.4021 32.0995 23.7293 32.4279C24.0021 32.6954 24.2648 32.9739 24.5329 33.2468C24.6002 33.3151 24.6629 33.3869 24.7357 33.4488C24.8738 33.5653 24.9975 33.5698 25.1329 33.4561C25.2138 33.3879 25.2802 33.3032 25.3556 33.2286C26.0356 32.5599 26.7138 31.8902 27.3983 31.2269C27.4792 31.1469 27.5826 31.0935 27.6946 31.074C27.8937 31.0477 28.011 31.175 28.0165 31.3779C28.0161 31.4579 27.9993 31.5369 27.9673 31.6101C27.9352 31.6834 27.8885 31.7493 27.8301 31.8038C27.4947 32.1568 27.1556 32.5071 26.8229 32.8638C26.3956 33.3187 25.9738 33.7827 25.5502 34.2395C25.4846 34.2999 25.4341 34.3748 25.4025 34.4582C25.3709 34.5416 25.3592 34.6312 25.3684 34.7199C25.3791 35.0379 25.3725 35.3562 25.3484 35.6735C25.3484 35.7772 25.3484 35.8818 25.3484 36.0074" fill="white"/>
<path d="M16.5496 43.9642C16.6769 43.7195 16.5241 43.4029 16.8269 43.2755C17.1378 43.4402 17.0923 43.7486 17.1514 44.0152L17.6523 44.0743C17.6614 43.9679 17.6659 43.8769 17.6787 43.7868C17.6869 43.6928 17.7045 43.5998 17.7314 43.5093C17.7474 43.4529 17.7826 43.4039 17.8309 43.3707C17.8792 43.3374 17.9376 43.3221 17.9959 43.3273C18.1432 43.3337 18.2004 43.4274 18.2223 43.5503C18.2523 43.7149 18.2723 43.8805 18.2986 44.0662H18.9531C18.9768 43.9024 19.0022 43.7359 19.025 43.5694C19.0404 43.4529 19.0886 43.3564 19.2186 43.3637C19.3486 43.371 19.3949 43.4647 19.4095 43.5812C19.4295 43.7368 19.4504 43.8933 19.4722 44.0662C19.8149 44.0662 20.1404 44.0662 20.4649 44.0662C20.6343 44.0641 20.8036 44.0717 20.9722 44.0889C21.1722 44.1144 21.2858 44.2308 21.2912 44.3846C21.2967 44.5384 21.1776 44.683 20.9649 44.7113C20.8067 44.7277 20.6476 44.7341 20.4885 44.7304C20.1613 44.7304 19.834 44.7304 19.4831 44.7304C19.4586 44.865 19.4349 44.9869 19.414 45.1089C19.4163 45.1709 19.4061 45.2328 19.384 45.2908C19.3388 45.3555 19.2716 45.4015 19.195 45.42C19.161 45.4117 19.1297 45.395 19.1038 45.3715C19.0779 45.348 19.0583 45.3184 19.0468 45.2854C19.0041 45.1125 18.9868 44.9305 18.9559 44.7322H18.3014C18.2814 44.875 18.2668 45.0197 18.2404 45.1607C18.1995 45.3846 18.1286 45.4664 17.9823 45.4692C17.8359 45.4719 17.7241 45.3554 17.6905 45.148C17.6686 45.0142 17.6632 44.875 17.6487 44.7203L17.155 44.7577C17.1369 44.8668 17.1232 44.9596 17.105 45.0506C17.0968 45.1348 17.0744 45.2169 17.0387 45.2936C16.9814 45.3846 16.9305 45.5156 16.7805 45.4855C16.6305 45.4555 16.6469 45.3382 16.6296 45.2362C16.6078 45.1016 16.5896 44.9633 16.5669 44.8095C16.3014 44.8095 16.0496 44.8095 15.7978 44.8095C15.5971 44.8027 15.3962 44.8075 15.196 44.8241C15.0735 44.8366 14.9571 44.8839 14.8606 44.9606C14.4315 45.3391 14.0115 45.7303 13.5952 46.1225C13.2097 46.4864 12.8352 46.8622 12.447 47.2225C12.3392 47.3232 12.213 47.402 12.0752 47.4545C11.9343 47.5064 11.778 47.5 11.6816 47.3417C11.6408 47.2789 11.6225 47.2041 11.6298 47.1295C11.637 47.0549 11.6694 46.9851 11.7216 46.9313C11.788 46.8485 11.8598 46.7703 11.9334 46.6939C12.3288 46.2808 12.7216 45.865 13.1243 45.4573C13.3843 45.1935 13.6606 44.9451 13.9261 44.6858C14.1706 44.4483 14.1706 44.3437 13.9333 44.1053C13.2667 43.438 12.6028 42.7687 11.9416 42.0972C11.8512 42.008 11.7679 41.9119 11.6925 41.8097C11.6487 41.7553 11.6248 41.6875 11.6248 41.6177C11.6248 41.5478 11.6487 41.4801 11.6925 41.4257C11.7262 41.3703 11.779 41.329 11.8409 41.3098C11.9029 41.2905 11.9697 41.2945 12.0289 41.3211C12.1759 41.3764 12.3127 41.4561 12.4334 41.5567C12.9915 42.0781 13.5361 42.6131 14.0897 43.1381C14.3433 43.3792 14.606 43.6103 14.8706 43.8396C14.9282 43.9013 15.004 43.9431 15.0869 43.9588C15.5733 43.9697 16.0596 43.9642 16.5414 43.9642" fill="white"/>
<path d="M34.1035 40.0836C33.7772 40.4012 33.429 40.7387 33.0817 41.0781C33.034 41.1344 32.983 41.1879 32.929 41.2383C32.8745 41.2822 32.8067 41.3062 32.7367 41.3062C32.6668 41.3062 32.5989 41.2822 32.5445 41.2383C32.4892 41.2042 32.4489 41.1503 32.432 41.0875C32.4151 41.0248 32.4228 40.9579 32.4536 40.9007C32.5085 40.7752 32.5824 40.6589 32.6726 40.5559C32.9454 40.2638 33.2463 39.9926 33.5244 39.7015C33.8326 39.3776 34.1753 39.3321 34.5917 39.4767C35.1533 39.6703 35.6717 39.9716 36.118 40.3639C36.2334 40.4658 36.4225 40.5795 36.3371 40.7442C36.2407 40.9262 36.0362 40.8352 35.8825 40.7779C35.3107 40.5613 34.7417 40.3357 34.1062 40.0873" fill="white"/>
<path d="M21.3394 55.7862C21.1831 55.8581 21.0831 55.768 20.9976 55.6762C20.4983 55.152 20.1402 54.5096 19.9568 53.8091C19.921 53.697 19.9162 53.5773 19.9427 53.4626C19.9693 53.3479 20.0263 53.2426 20.1077 53.1576C20.4831 52.77 20.8685 52.3933 21.2503 52.0121C21.2724 51.9894 21.2971 51.9696 21.324 51.9529C21.5058 51.8465 21.6876 51.862 21.7785 51.9975C21.8894 52.1531 21.8694 52.3333 21.6967 52.4707C21.2831 52.8073 20.9576 53.2222 20.6395 53.5862C20.8822 54.2131 21.1113 54.8045 21.3385 55.3959C21.3682 55.4567 21.3837 55.5234 21.3837 55.5911C21.3837 55.6587 21.3691 55.7255 21.3394 55.7862Z" fill="white"/>
<path d="M20.6404 35.2203L21.6403 36.2503C21.7058 36.3167 21.813 36.3804 21.8221 36.456C21.8407 36.5775 21.8173 36.7017 21.7558 36.8081C21.6649 36.9373 21.5067 36.9127 21.3776 36.8518C21.2824 36.8046 21.196 36.7415 21.1222 36.6652C20.8131 36.3604 20.514 36.0465 20.204 35.7417C19.9313 35.4687 19.8849 35.163 20.0004 34.8073C20.1894 34.2198 20.4966 33.6773 20.9031 33.2132C20.9786 33.1251 21.0672 33.0493 21.1658 32.9884C21.2849 32.9184 21.3722 32.9693 21.3812 33.1103C21.3881 33.205 21.3754 33.3001 21.344 33.3897C21.1249 33.9738 20.8976 34.5543 20.6404 35.2203Z" fill="white"/>
<path d="M15.756 40.09C15.1287 40.3348 14.5597 40.5604 13.987 40.7779C13.8324 40.8361 13.6233 40.9244 13.5324 40.7387C13.4497 40.574 13.6433 40.4658 13.7579 40.3611C14.2251 39.9423 14.777 39.6291 15.376 39.4431C15.7314 39.3302 16.0396 39.3812 16.306 39.6605C16.5914 39.9599 16.895 40.241 17.1823 40.5386C17.2767 40.6385 17.3552 40.7523 17.415 40.8761C17.4492 40.9369 17.4588 41.0085 17.4419 41.0762C17.425 41.1439 17.3829 41.2025 17.3241 41.2401C17.2634 41.2834 17.1896 41.3044 17.1152 41.2994C17.0408 41.2945 16.9704 41.2638 16.916 41.2128C16.7578 41.0554 16.6214 40.8789 16.4614 40.7242C16.2251 40.4985 15.976 40.2856 15.756 40.0873" fill="white"/>
<path d="M13.527 48.0086C13.5964 47.9704 13.674 47.9497 13.7532 47.9482C13.8324 47.9468 13.9108 47.9647 13.9815 48.0004C14.4924 48.2006 15.0069 48.3953 15.5078 48.6201C15.6724 48.6929 15.7742 48.6929 15.8969 48.5691C16.2014 48.2616 16.5132 47.9595 16.8223 47.6592C16.8582 47.6203 16.8962 47.5832 16.936 47.5482C16.9895 47.5035 17.0567 47.4784 17.1265 47.477C17.1962 47.4757 17.2644 47.4983 17.3196 47.541C17.3759 47.5739 17.4178 47.6267 17.437 47.6891C17.4562 47.7514 17.4512 47.8187 17.4232 47.8776C17.3704 48.0038 17.2966 48.12 17.205 48.2215C16.906 48.5355 16.5951 48.8384 16.2869 49.1451C16.0269 49.4053 15.7196 49.4471 15.3778 49.3425C14.7699 49.1539 14.2109 48.8336 13.7406 48.4044C13.6261 48.3025 13.4824 48.2079 13.527 48.0086Z" fill="white"/>
<path d="M29.241 53.558C28.9082 53.2204 28.5483 52.8501 28.181 52.4852C28.0137 52.3196 27.9746 52.1386 28.0955 51.9839C28.1964 51.8547 28.3974 51.851 28.5837 51.9775C28.6192 52.0007 28.6524 52.0272 28.6828 52.0567C29.0216 52.3909 29.3594 52.7245 29.6964 53.0575C29.9491 53.3105 29.9855 53.6116 29.8846 53.941C29.6944 54.5616 29.3694 55.1324 28.9328 55.6125C28.8419 55.7162 28.7273 55.8854 28.5692 55.7835C28.411 55.6816 28.4883 55.5106 28.5392 55.3741C28.7582 54.7899 28.9882 54.2094 29.2419 53.5543" fill="white"/>
<path d="M29.23 35.194C28.9919 34.5807 28.7637 34.0011 28.5428 33.4179C28.5089 33.3287 28.4922 33.2339 28.4937 33.1385C28.4983 32.9657 28.6028 32.9129 28.7473 32.9993C28.8015 33.0331 28.8507 33.0741 28.8937 33.1213C29.3676 33.6251 29.7132 34.2359 29.9009 34.9019C29.9755 35.1694 29.9573 35.4333 29.7509 35.6462C29.3964 36.0101 29.0364 36.3677 28.6773 36.7253C28.6321 36.7701 28.5811 36.8087 28.5255 36.8399C28.4923 36.867 28.4539 36.8871 28.4127 36.899C28.3715 36.9109 28.3283 36.9144 28.2857 36.9091C28.2431 36.9039 28.2021 36.8901 28.165 36.8686C28.1279 36.847 28.0955 36.8182 28.0698 36.7838C28.0441 36.7495 28.0256 36.7102 28.0154 36.6685C28.0053 36.6268 28.0036 36.5835 28.0106 36.5411C28.0176 36.4988 28.0331 36.4583 28.0561 36.4221C28.0792 36.3858 28.1093 36.3547 28.1446 36.3304C28.4346 36.0374 28.7246 35.7444 29.011 35.4496C29.1019 35.3586 29.1746 35.2586 29.231 35.1931" fill="white"/>
<path d="M36.4052 47.9941C36.3243 48.1387 36.2907 48.2516 36.2162 48.3244C35.7134 48.8139 35.0962 49.1695 34.4208 49.3589C34.2789 49.405 34.127 49.4102 33.9824 49.374C33.8377 49.3378 33.7061 49.2616 33.6026 49.1542C33.2799 48.8339 32.9563 48.5173 32.6381 48.1897C32.5729 48.1201 32.5191 48.0406 32.479 47.954C32.3881 47.7721 32.4254 47.6219 32.5608 47.5328C32.6963 47.4436 32.8517 47.4582 32.9872 47.5946C33.0399 47.6465 33.0781 47.7102 33.1335 47.7612C33.4681 48.0823 33.8035 48.3981 34.1335 48.7183C34.7971 48.4172 35.4216 48.1024 36.1089 47.9559C36.1752 47.9413 36.2516 47.9731 36.4052 47.9941Z" fill="white"/>
<path d="M33.2981 36.6798C33.2826 36.9018 33.199 37.1284 32.9499 37.2394C32.7008 37.3504 32.4954 37.2758 32.3136 37.0883C32.2918 37.0647 32.2672 37.0446 32.2454 37.0219C31.9818 36.7426 31.9545 36.4687 32.1663 36.2358C32.2862 36.1149 32.4455 36.0411 32.6152 36.0279C32.7849 36.0147 32.9537 36.063 33.0908 36.1639C33.2408 36.2894 33.2881 36.4578 33.2944 36.6807" fill="white"/>
<path d="M17.2123 52.7573C16.9296 52.7573 16.7078 52.6272 16.6241 52.4106C16.5196 52.1376 16.596 51.791 16.796 51.6199C17.0241 51.4261 17.3032 51.4534 17.5641 51.6973C17.8496 51.9629 17.915 52.2705 17.7377 52.508C17.6733 52.585 17.593 52.6472 17.5023 52.6902C17.4116 52.7333 17.3127 52.7561 17.2123 52.7573Z" fill="white"/>
<path d="M33.2963 52.1295C33.2963 52.427 33.1608 52.6335 32.909 52.7182C32.7737 52.7663 32.6268 52.7716 32.4883 52.7336C32.3498 52.6955 32.2263 52.6158 32.1345 52.5052C31.9445 52.2496 32.0136 51.9657 32.3354 51.6773C32.599 51.4407 32.8863 51.4216 33.0999 51.6409C33.1641 51.7047 33.2147 51.7809 33.2487 51.8649C33.2826 51.9489 33.2982 52.0389 33.2963 52.1295Z" fill="white"/>
<path d="M16.5787 36.6279C16.5914 36.3349 16.7214 36.1411 16.9569 36.0647C17.0875 36.0199 17.2281 36.0132 17.3624 36.0454C17.4966 36.0776 17.6189 36.1474 17.715 36.2467C17.9177 36.4805 17.8605 36.809 17.5696 37.0838C17.315 37.3258 16.9859 37.3567 16.776 37.1502C16.6466 37.0088 16.576 36.8233 16.5787 36.6316" fill="white"/>
<path d="M15.4969 42.311C15.0897 42.3046 14.8378 42.049 14.8506 41.6532C14.8606 41.3329 15.1115 41.069 15.416 41.099C15.8051 41.1373 16.0633 41.372 16.0669 41.7441C16.0669 42.0171 15.9169 42.3519 15.4969 42.311Z" fill="white"/>
<path d="M15.5224 46.4628C15.8587 46.4628 16.0733 46.6948 16.0678 47.0615C16.0633 47.3927 15.7396 47.6902 15.3906 47.682C15.3165 47.6814 15.2433 47.6657 15.1754 47.6358C15.1076 47.606 15.0466 47.5626 14.9961 47.5084C14.9455 47.4542 14.9066 47.3902 14.8816 47.3204C14.8565 47.2506 14.846 47.1764 14.8506 47.1024C14.8506 46.7121 15.1106 46.4655 15.5224 46.4655" fill="white"/>
<path d="M35.0162 47.1224C35.0162 47.45 34.7726 47.7102 34.4635 47.6838C34.0526 47.6492 33.8108 47.3954 33.8072 47.0469C33.8035 46.6984 34.0172 46.4673 34.3371 46.4673C34.7699 46.4673 35.0208 46.7102 35.0162 47.1251" fill="white"/>
<path d="M27.6301 54.4778C27.2383 54.4715 26.9983 54.2103 27.0056 53.7982C27.011 53.467 27.2547 53.2577 27.621 53.2695C27.9501 53.2795 28.2355 53.6071 28.221 53.9601C28.2083 54.2786 27.9746 54.4833 27.6301 54.4778Z" fill="white"/>
<path d="M34.3417 42.3101C34.0035 42.3101 33.7844 42.0735 33.8072 41.7096C33.8299 41.3456 34.0999 41.1145 34.4926 41.099C34.8008 41.0872 35.0207 41.3484 35.0171 41.6877C35.0171 42.089 34.7726 42.311 34.3417 42.3101Z" fill="white"/>
<path d="M27.0038 34.9838C26.9992 34.5607 27.2465 34.3023 27.6592 34.3014C27.7325 34.2976 27.8059 34.309 27.8746 34.3349C27.9433 34.3608 28.006 34.4006 28.0586 34.4519C28.1113 34.5031 28.1528 34.5647 28.1806 34.6327C28.2084 34.7008 28.2218 34.7738 28.2201 34.8473C28.2201 35.1958 27.9428 35.4997 27.6219 35.5061C27.2438 35.5133 27.0074 35.3141 27.0038 34.982" fill="white"/>
<path d="M22.2358 54.476C21.8939 54.476 21.6394 54.2386 21.6458 53.9174C21.6521 53.5816 21.9421 53.2805 22.2612 53.2677C22.6248 53.2586 22.8594 53.4652 22.8621 53.8054C22.8621 54.2258 22.6348 54.4724 22.2348 54.4751" fill="white"/>
<path d="M22.8639 34.9947C22.8539 35.3286 22.6139 35.5261 22.2394 35.507C22.075 35.4905 21.9228 35.4128 21.813 35.2893C21.7032 35.1657 21.6438 35.0054 21.6467 34.84C21.654 34.517 21.9194 34.2868 22.2567 34.3005C22.6503 34.3177 22.8776 34.5734 22.8648 34.9938" fill="white"/>
<path d="M20.4486 40.4494C20.3716 40.4521 20.2949 40.4392 20.223 40.4116C20.1512 40.3839 20.0856 40.342 20.0303 40.2884C19.9749 40.2348 19.931 40.1706 19.901 40.0996C19.871 40.0286 19.8557 39.9523 19.8558 39.8753C19.8558 39.5195 20.0758 39.3057 20.4376 39.3039C20.5118 39.3043 20.5852 39.3195 20.6535 39.3486C20.7218 39.3776 20.7836 39.42 20.8355 39.4731C20.8873 39.5263 20.9281 39.5892 20.9554 39.6582C20.9828 39.7272 20.9962 39.801 20.9949 39.8753C21.0001 39.9496 20.9897 40.0242 20.9646 40.0943C20.9394 40.1645 20.8998 40.2286 20.8485 40.2826C20.7972 40.3366 20.7352 40.3793 20.6665 40.408C20.5978 40.4368 20.523 40.4508 20.4486 40.4494Z" fill="white"/>
<path d="M28.8864 39.8698C28.9001 39.5177 29.1391 39.2875 29.4728 39.3039C29.8282 39.3221 30.0382 39.5523 30.0182 39.9053C30.0041 40.0598 29.93 40.2027 29.8119 40.3032C29.6938 40.4037 29.5411 40.4539 29.3864 40.443C29.0728 40.4248 28.8692 40.1946 28.8819 39.8689" fill="white"/>
<path d="M20.9949 48.8776C21.002 49.0272 20.951 49.1738 20.8526 49.2866C20.7541 49.3994 20.6158 49.4696 20.4667 49.4826C20.1031 49.4972 19.8558 49.2661 19.8558 48.9049C19.8545 48.8304 19.8681 48.7564 19.8959 48.6873C19.9236 48.6183 19.965 48.5554 20.0175 48.5027C20.07 48.4499 20.1325 48.4082 20.2014 48.3801C20.2703 48.3519 20.3441 48.3379 20.4185 48.3389C20.4928 48.3318 20.5676 48.3406 20.6382 48.3646C20.7088 48.3886 20.7735 48.4274 20.828 48.4783C20.8825 48.5292 20.9255 48.5911 20.9543 48.66C20.9831 48.7288 20.9969 48.803 20.9949 48.8776Z" fill="white"/>
<path d="M28.8837 48.8603C28.8824 48.7886 28.8962 48.7174 28.9242 48.6514C28.9522 48.5854 28.9939 48.5261 29.0464 48.4773C29.0989 48.4285 29.1611 48.3914 29.2289 48.3683C29.2968 48.3453 29.3687 48.3368 29.44 48.3435C29.7909 48.3544 30.0327 48.5964 30.02 48.9222C30.0055 49.2743 29.7855 49.4817 29.4246 49.4817C29.1146 49.4817 28.8792 49.2088 28.8846 48.8612" fill="white"/>
<path d="M27.3274 44.1635C27.1456 43.2846 26.691 42.6167 25.8593 42.22C25.2529 41.9316 24.6602 41.8888 24.063 42.2055C23.7193 42.3874 23.3439 42.5394 23.1221 42.886C22.9576 43.1326 22.8141 43.3925 22.693 43.6631C22.6028 43.8997 22.5459 44.1478 22.5239 44.4001C22.5239 44.4428 22.5239 44.4847 22.5312 44.5265C22.535 44.569 22.5414 44.6113 22.5503 44.653C22.753 45.5392 23.2139 46.2153 24.0757 46.5892C24.5075 46.7767 24.9438 46.8904 25.3956 46.7375C25.6933 46.6285 25.9785 46.4883 26.2465 46.319C26.4386 46.2107 26.6075 46.0657 26.7438 45.8923C26.9285 45.6342 27.0843 45.3565 27.2083 45.0643C27.3413 44.7842 27.3826 44.4693 27.3265 44.1644M24.922 46.1297C24.0448 46.1243 23.1948 45.3027 23.203 44.3664C23.2112 43.5248 24.0121 42.6376 24.9702 42.6568C25.8156 42.6695 26.7301 43.4802 26.6592 44.3983C26.7192 45.3081 25.822 46.1334 24.922 46.127" fill="white"/>
<path d="M24.942 43.4584C25.4738 43.5311 25.8265 43.8651 25.8584 44.3873C25.8865 44.8541 25.3802 45.3509 24.9175 45.3118C24.6758 45.3005 24.4474 45.1977 24.2786 45.0242C24.1098 44.8507 24.0132 44.6194 24.0084 44.3773C23.9893 43.936 24.5057 43.452 24.9393 43.4584" fill="white"/>
<path d="M39.526 11.8457C38.4654 11.2382 37.2744 10.8949 36.0534 10.8448C35.9444 10.8399 35.8353 10.8375 35.7262 10.8375C33.0954 10.8375 30.5445 12.2023 29.1564 14.3742C28.4864 15.4224 28.2092 16.6352 28.3337 17.9782C28.4992 19.767 29.2628 21.3984 30.4291 22.4557C32.2872 24.1381 35.2607 24.7468 37.8297 23.9707C39.2742 23.5429 40.552 22.6804 41.4896 21.5003C42.227 20.5532 42.6854 19.4187 42.8132 18.2248C43.0868 15.6671 41.7969 13.1632 39.526 11.8457ZM35.9862 23.6285C34.3417 23.9015 33.0226 22.7087 32.2854 21.009C30.8564 17.7153 31.7109 13.3888 34.5962 11.8984C35.8562 11.2479 37.3143 11.6255 38.3234 12.6955C38.8588 13.2632 39.2179 14.0285 39.4324 14.8355C39.5489 15.2804 39.6307 15.7337 39.6769 16.1912C40.0033 19.3276 38.8824 23.149 35.9862 23.6313V23.6285Z" fill="white"/>
<path d="M20.8367 14.3733C19.3913 12.1113 16.6841 10.7265 13.9397 10.8448C12.7187 10.8949 11.5277 11.2382 10.4671 11.8457C8.19445 13.1595 6.90632 15.6671 7.17903 18.223C7.30711 19.4168 7.7655 20.5512 8.50262 21.4985C9.44058 22.6786 10.7187 23.5411 12.1634 23.9688C14.7333 24.744 17.7087 24.1353 19.564 22.453C20.7313 21.3993 21.4949 19.7661 21.6603 17.9782C21.784 16.6352 21.5067 15.4224 20.8367 14.3733ZM17.8886 21.0154C17.1514 22.7159 15.8333 23.9097 14.1879 23.6358C11.2916 23.1527 10.1735 19.3321 10.4989 16.1985C10.5452 15.7409 10.6269 15.2877 10.7434 14.8428C10.958 14.0357 11.3171 13.2705 11.8525 12.7028C12.8606 11.6337 14.3179 11.2552 15.5796 11.9057C18.4632 13.3924 19.3177 17.7171 17.8886 21.0108V21.0154Z" fill="white"/>
<path d="M12.4134 14.9247C12.4243 14.6736 12.5361 14.507 12.7379 14.4415C12.8495 14.4023 12.9701 14.3958 13.0852 14.4229C13.2004 14.45 13.3054 14.5095 13.3879 14.5944C13.5615 14.7946 13.5124 15.0766 13.2634 15.3123C13.0452 15.5197 12.7634 15.5434 12.5825 15.3696C12.4715 15.2483 12.411 15.0891 12.4134 14.9247Z" fill="white"/>
<path d="M11.2707 16.3723C11.2816 16.1212 11.3934 15.9547 11.5952 15.8891C11.7069 15.8499 11.8274 15.8434 11.9425 15.8705C12.0577 15.8976 12.1627 15.9571 12.2452 16.042C12.4188 16.2422 12.3698 16.5242 12.1207 16.7599C11.9025 16.9673 11.6207 16.991 11.4398 16.8172C11.3288 16.6959 11.2683 16.5368 11.2707 16.3723Z" fill="white"/>
<path d="M33.839 14.9247C33.8499 14.6736 33.9617 14.507 34.1635 14.4415C34.2751 14.4023 34.3956 14.3958 34.5108 14.4229C34.626 14.45 34.731 14.5095 34.8135 14.5944C34.9871 14.7946 34.938 15.0766 34.6889 15.3123C34.4708 15.5197 34.189 15.5434 34.0081 15.3696C33.8971 15.2483 33.8366 15.0891 33.839 14.9247Z" fill="white"/>
<path d="M32.6954 16.3723C32.7063 16.1212 32.8181 15.9547 33.0199 15.8891C33.1315 15.8499 33.252 15.8434 33.3672 15.8705C33.4824 15.8976 33.5874 15.9571 33.6699 16.042C33.8435 16.2422 33.7944 16.5242 33.5453 16.7599C33.3272 16.9673 33.0454 16.991 32.8645 16.8172C32.7535 16.6959 32.693 16.5368 32.6954 16.3723Z" fill="white"/>
</svg>
