<svg xmlns="http://www.w3.org/2000/svg" width="16" height="17" viewBox="0 0 16 17" fill="none"><g clip-path="url(#clip0_1045_800)"><path d="M8.28852 16.788C4.67219 16.7783 1.5212 14.4939 0.493318 11.0866C-0.365154 8.23155 0.191414 5.62193 2.1223 3.34136C3.30928 1.9399 4.83998 1.08088 6.63945 0.713275C7.64605 0.50798 8.68288 0.499498 9.6927 0.688297C9.80565 0.708931 9.80673 0.739338 9.76275 0.830561C9.26609 1.86442 8.77179 2.89973 8.27984 3.93648C8.26764 3.9689 8.24503 3.99636 8.21555 4.01454C8.18607 4.03272 8.15138 4.04059 8.11694 4.03693C7.08225 4.06339 6.08614 4.43512 5.28708 5.09298C4.48803 5.75084 3.93194 6.65704 3.70729 7.66738C3.21154 9.87574 4.40612 12.1601 6.51402 12.9697C8.18698 13.6121 9.74374 13.3563 11.1599 12.2584C11.2321 12.2041 11.262 12.1932 11.3135 12.2828C11.8565 13.2331 12.4042 14.1815 12.9566 15.1281C13.005 15.2112 12.9876 15.2487 12.9159 15.2986C11.8493 16.0533 10.6154 16.5377 9.32021 16.7104C8.97793 16.7545 8.63355 16.7804 8.28852 16.788Z" fill="white"></path><path d="M8.28852 16.788C4.67219 16.7783 1.5212 14.4939 0.493318 11.0866C-0.365154 8.23155 0.191414 5.62193 2.1223 3.34136C3.30928 1.9399 4.83998 1.08088 6.63945 0.713275C7.64605 0.50798 8.68288 0.499498 9.6927 0.688297C9.80565 0.708931 9.80673 0.739338 9.76275 0.830561C9.26609 1.86442 8.77179 2.89973 8.27984 3.93648C8.26764 3.9689 8.24503 3.99636 8.21555 4.01454C8.18607 4.03272 8.15138 4.04059 8.11694 4.03693C7.08225 4.06339 6.08614 4.43512 5.28708 5.09298C4.48803 5.75084 3.93194 6.65704 3.70729 7.66738C3.21154 9.87574 4.40612 12.1601 6.51402 12.9697C8.18698 13.6121 9.74374 13.3563 11.1599 12.2584C11.2321 12.2041 11.262 12.1932 11.3135 12.2828C11.8565 13.2331 12.4042 14.1815 12.9566 15.1281C13.005 15.2112 12.9876 15.2487 12.9159 15.2986C11.8493 16.0533 10.6154 16.5377 9.32021 16.7104C8.97793 16.7545 8.63355 16.7804 8.28852 16.788Z" fill="#253957" fill-opacity="0.56"></path><path d="M13.9071 14.4368C13.8626 14.4129 13.8501 14.364 13.8273 14.3244C13.2097 13.2565 12.5943 12.1875 11.9811 11.1175C11.9603 11.0736 11.9263 11.0374 11.8838 11.0138C11.8414 10.9903 11.7926 10.9806 11.7444 10.9861C10.5183 10.9899 9.29277 10.9861 8.06669 10.9861H7.91411C7.91302 10.939 7.93014 10.8933 7.9619 10.8585C8.58453 9.77681 9.20752 8.69517 9.83088 7.61353C9.84743 7.57775 9.87475 7.54805 9.90903 7.52857C9.9433 7.5091 9.9828 7.50083 10.022 7.50493C11.277 7.50819 12.5317 7.50819 13.786 7.50493C13.825 7.50086 13.8643 7.50915 13.8983 7.52864C13.9323 7.54813 13.9593 7.57783 13.9755 7.61353C14.6014 8.70422 15.2302 9.79346 15.8619 10.8813C15.883 10.9091 15.8949 10.9429 15.8958 10.9779C15.8968 11.0128 15.8868 11.0472 15.8673 11.0762C15.2328 12.172 14.6005 13.2666 13.9707 14.3602C13.9538 14.3879 13.9462 14.4259 13.9071 14.4368Z" fill="white"></path><path d="M13.9071 14.4368C13.8626 14.4129 13.8501 14.364 13.8273 14.3244C13.2097 13.2565 12.5943 12.1875 11.9811 11.1175C11.9603 11.0736 11.9263 11.0374 11.8838 11.0138C11.8414 10.9903 11.7926 10.9806 11.7444 10.9861C10.5183 10.9899 9.29277 10.9861 8.06669 10.9861H7.91411C7.91302 10.939 7.93014 10.8933 7.9619 10.8585C8.58453 9.77681 9.20752 8.69517 9.83088 7.61353C9.84743 7.57775 9.87475 7.54805 9.90903 7.52857C9.9433 7.5091 9.9828 7.50083 10.022 7.50493C11.277 7.50819 12.5317 7.50819 13.786 7.50493C13.825 7.50086 13.8643 7.50915 13.8983 7.52864C13.9323 7.54813 13.9593 7.57783 13.9755 7.61353C14.6014 8.70422 15.2302 9.79346 15.8619 10.8813C15.883 10.9091 15.8949 10.9429 15.8958 10.9779C15.8968 11.0128 15.8868 11.0472 15.8673 11.0762C15.2328 12.172 14.6005 13.2666 13.9707 14.3602C13.9538 14.3879 13.9462 14.4259 13.9071 14.4368Z" fill="#253957" fill-opacity="0.56"></path><path d="M11.2646 2.94964C11.0398 2.72484 10.8302 2.50982 10.613 2.29805C10.5457 2.23289 10.5929 2.18457 10.6217 2.13515C10.8702 1.70238 11.2749 1.38105 11.7527 1.23704C12.0423 1.14149 12.3487 1.10758 12.6521 1.1375C12.9556 1.16743 13.2494 1.26052 13.5148 1.4108C14.4921 1.93913 14.4047 3.16467 13.8405 3.71852C13.6267 3.92448 13.3844 4.09874 13.1211 4.23599C12.8496 4.38043 12.5781 4.51672 12.312 4.67039C12.091 4.79691 11.9189 4.97175 11.8391 5.22478C11.8065 5.32687 11.826 5.35347 11.9352 5.35239C12.653 5.34804 13.3714 5.35239 14.0898 5.34804C14.1984 5.34804 14.2391 5.36868 14.2348 5.48705C14.225 5.74063 14.2288 5.99475 14.2348 6.24724C14.2348 6.3276 14.2125 6.35584 14.13 6.35584C12.9756 6.35367 11.8215 6.35367 10.6678 6.35584C10.6135 6.35584 10.563 6.35584 10.5625 6.2771C10.5625 5.47782 10.7102 4.73338 11.3357 4.16323C11.6337 3.89937 11.9682 3.67991 12.3289 3.51164C12.5265 3.41499 12.7263 3.32268 12.899 3.18259C13.0499 3.05987 13.1542 2.91109 13.1651 2.71018C13.1814 2.39579 12.9327 2.1623 12.5569 2.13787C12.0166 2.09932 11.6268 2.34258 11.3542 2.79435C11.327 2.83887 11.3021 2.88448 11.2646 2.94964Z" fill="white"></path><path d="M11.2646 2.94964C11.0398 2.72484 10.8302 2.50982 10.613 2.29805C10.5457 2.23289 10.5929 2.18457 10.6217 2.13515C10.8702 1.70238 11.2749 1.38105 11.7527 1.23704C12.0423 1.14149 12.3487 1.10758 12.6521 1.1375C12.9556 1.16743 13.2494 1.26052 13.5148 1.4108C14.4921 1.93913 14.4047 3.16467 13.8405 3.71852C13.6267 3.92448 13.3844 4.09874 13.1211 4.23599C12.8496 4.38043 12.5781 4.51672 12.312 4.67039C12.091 4.79691 11.9189 4.97175 11.8391 5.22478C11.8065 5.32687 11.826 5.35347 11.9352 5.35239C12.653 5.34804 13.3714 5.35239 14.0898 5.34804C14.1984 5.34804 14.2391 5.36868 14.2348 5.48705C14.225 5.74063 14.2288 5.99475 14.2348 6.24724C14.2348 6.3276 14.2125 6.35584 14.13 6.35584C12.9756 6.35367 11.8215 6.35367 10.6678 6.35584C10.6135 6.35584 10.563 6.35584 10.5625 6.2771C10.5625 5.47782 10.7102 4.73338 11.3357 4.16323C11.6337 3.89937 11.9682 3.67991 12.3289 3.51164C12.5265 3.41499 12.7263 3.32268 12.899 3.18259C13.0499 3.05987 13.1542 2.91109 13.1651 2.71018C13.1814 2.39579 12.9327 2.1623 12.5569 2.13787C12.0166 2.09932 11.6268 2.34258 11.3542 2.79435C11.327 2.83887 11.3021 2.88448 11.2646 2.94964Z" fill="#253957" fill-opacity="0.56"></path><path d="M14.0192 15.5752V15.3141H13.9258V15.2598H14.1761V15.3141H14.0816V15.5752H14.0192ZM14.2163 15.5752V15.2609H14.3113L14.3656 15.4753L14.4199 15.2609H14.5155V15.5752H14.4617V15.3276L14.3993 15.5752H14.3379L14.276 15.3276V15.5752H14.2163Z" fill="white"></path><path d="M14.0192 15.5752V15.3141H13.9258V15.2598H14.1761V15.3141H14.0816V15.5752H14.0192ZM14.2163 15.5752V15.2609H14.3113L14.3656 15.4753L14.4199 15.2609H14.5155V15.5752H14.4617V15.3276L14.3993 15.5752H14.3379L14.276 15.3276V15.5752H14.2163Z" fill="#253957" fill-opacity="0.56"></path></g><defs><clipPath id="clip0_1045_800"><rect width="16" height="16.4418" fill="white" transform="translate(0 0.449219)"></rect></clipPath></defs></svg>