<svg xmlns="http://www.w3.org/2000/svg" width="16" height="16" viewBox="0 0 16 16" fill="none"><path d="M8 0C3.58 0 0 3.58 0 8s3.58 8 8 8 8-3.58 8-8-3.58-8-8-8zm3.28 11.2h-2.4V9.6h2.4c.44 0 .8-.36.8-.8s-.36-.8-.8-.8H9.84L11.6 4.8h1.84L11.68 8h-.4c.88 0 1.6.72 1.6 1.6 0 .88-.72 1.6-1.6 1.6zM7.2 11.6c-2 0-3.6-1.6-3.6-3.6S5.2 4.4 7.2 4.4c1 0 1.88.4 2.52 1.04L8.68 6.48C8.32 6.12 7.8 5.88 7.2 5.88c-1.16 0-2.12.96-2.12 2.12S6.04 10.12 7.2 10.12c.84 0 1.56-.48 1.88-1.2H7.2V7.6h3.52c.04.2.08.4.08.6 0 1.88-1.52 3.4-3.6 3.4z" fill="#253957" fill-opacity="0.56"/></svg>
