<svg xmlns="http://www.w3.org/2000/svg" width="28" height="17" viewBox="0 0 28 17" fill="none"><g clip-path="url(#clip0_1045_837)"><path d="M27.2381 8.14411L19.9421 0.848081C19.6876 0.610536 19.3143 0.610536 19.0768 0.848081L17.6345 2.29032L23.4883 8.14411C23.7258 8.38165 23.7258 8.7719 23.4883 9.00944L17.4648 15.0329L18.9071 16.4752C19.1616 16.7127 19.5349 16.7127 19.7724 16.4752L27.2211 9.02641C27.4757 8.7719 27.4757 8.39861 27.2381 8.14411Z" fill="white"></path><path d="M27.2381 8.14411L19.9421 0.848081C19.6876 0.610536 19.3143 0.610536 19.0768 0.848081L17.6345 2.29032L23.4883 8.14411C23.7258 8.38165 23.7258 8.7719 23.4883 9.00944L17.4648 15.0329L18.9071 16.4752C19.1616 16.7127 19.5349 16.7127 19.7724 16.4752L27.2211 9.02641C27.4757 8.7719 27.4757 8.39861 27.2381 8.14411Z" fill="#253957" fill-opacity="0.56"></path><path d="M14.291 0.881283L14.817 1.40728L16.7004 3.23976L21.604 8.14337C21.8415 8.38091 21.8415 8.77116 21.604 9.00871L16.5307 14.082C15.5965 15.0163 14.1553 16.4914 14.1553 16.4914C13.9177 16.7289 13.5445 16.7289 13.29 16.4914L11.8477 15.0491L14.6643 12.2156L17.8711 9.00871C18.1087 8.77116 18.1087 8.39788 17.8711 8.14337L14.817 5.10619L11.9834 2.32352L13.4257 0.881283C13.6632 0.643739 14.0365 0.643739 14.291 0.881283Z" fill="white"></path><path d="M14.291 0.881283L14.817 1.40728L16.7004 3.23976L21.604 8.14337C21.8415 8.38091 21.8415 8.77116 21.604 9.00871L16.5307 14.082C15.5965 15.0163 14.1553 16.4914 14.1553 16.4914C13.9177 16.7289 13.5445 16.7289 13.29 16.4914L11.8477 15.0491L14.6643 12.2156L17.8711 9.00871C18.1087 8.77116 18.1087 8.39788 17.8711 8.14337L14.817 5.10619L11.9834 2.32352L13.4257 0.881283C13.6632 0.643739 14.0365 0.643739 14.291 0.881283Z" fill="#253957" fill-opacity="0.56"></path><path d="M9.17191 1.3897L11.0383 3.25612L13.8719 6.08969L15.942 8.15973C16.1795 8.39727 16.1795 8.78752 15.942 9.02507L13.7022 11.2648L10.8856 14.0984L9.0192 15.9648L8.47624 16.4907C8.23869 16.7283 7.86541 16.7283 7.6109 16.4907L0.314877 9.19474C0.0773325 8.95719 0.0773325 8.56695 0.314877 8.3294L7.76361 0.863706C8.00116 0.626161 8.37444 0.626161 8.62895 0.863706L9.17191 1.3897Z" fill="white"></path><path d="M9.17191 1.3897L11.0383 3.25612L13.8719 6.08969L15.942 8.15973C16.1795 8.39727 16.1795 8.78752 15.942 9.02507L13.7022 11.2648L10.8856 14.0984L9.0192 15.9648L8.47624 16.4907C8.23869 16.7283 7.86541 16.7283 7.6109 16.4907L0.314877 9.19474C0.0773325 8.95719 0.0773325 8.56695 0.314877 8.3294L7.76361 0.863706C8.00116 0.626161 8.37444 0.626161 8.62895 0.863706L9.17191 1.3897Z" fill="#253957" fill-opacity="0.56"></path></g><defs><clipPath id="clip0_1045_837"><rect width="27.5556" height="16" fill="white" transform="translate(0 0.669922)"></rect></clipPath></defs></svg>