<svg xmlns="http://www.w3.org/2000/svg" width="116" height="32" viewBox="0 0 116 32" fill="none"><g clip-path="url(#clip0_1166_2580)"><path d="M12.4903 11.1009C12.4677 9.36647 12.8029 7.64623 13.4745 6.04938C13.6681 5.60556 13.8881 5.17391 14.1332 4.75676V0.64624H7.62041L0.1875 5.42892L3.50412 10.6252L7.02834 8.17444V21.7986H14.1383V17.5149C13.892 17.0864 13.6712 16.6436 13.477 16.1887C12.8085 14.5781 12.4728 12.8469 12.4903 11.1009Z" fill="#9ACA3C"></path><path d="M23.4691 22.2821C23.8621 22.332 24.262 22.3657 24.6686 22.3829C24.872 22.3829 25.0779 22.3829 25.2863 22.3829C26.8598 22.3966 28.4228 22.1234 29.8999 21.5763C30.0707 21.5091 30.2416 21.4384 30.4125 21.3643C30.9197 21.1462 31.4105 20.8913 31.8811 20.6017C32.0349 20.5069 32.1861 20.4078 32.3348 20.3044C32.5569 20.151 32.7731 19.9898 32.9832 19.8209C33.1934 19.652 33.3959 19.4754 33.5907 19.291C33.8519 19.0459 34.1 18.787 34.334 18.5154C35.0462 17.68 35.6256 16.7381 36.0512 15.7233C36.3508 15.0153 36.5742 14.2768 36.7176 13.5207C36.7723 13.2312 36.8176 12.9365 36.8535 12.6366C36.8894 12.3367 36.9133 12.0316 36.9253 11.7214C36.9338 11.5146 36.9381 11.3052 36.9381 11.0932C36.9381 10.8812 36.9338 10.6718 36.9253 10.465C36.9116 10.1547 36.8877 9.85055 36.8535 9.55239C36.8193 9.25422 36.774 8.96209 36.7176 8.67599C36.6095 8.11452 36.4561 7.56289 36.2589 7.02662C36.1939 6.85427 36.1247 6.68192 36.0512 6.50957C35.832 6.00786 35.575 5.52386 35.2823 5.06184C34.8102 4.31042 34.2394 3.62689 33.5856 3.02985C33.1922 2.67081 32.7723 2.3424 32.3297 2.04746C32.181 1.94922 32.0298 1.85357 31.876 1.7605C31.4125 1.48453 30.9303 1.24178 30.433 1.03405C30.2621 0.961662 30.0912 0.893584 29.9204 0.829815C28.4389 0.302662 26.8777 0.0402046 25.3068 0.0542459C25.1001 0.0542459 24.8942 0.0542459 24.6891 0.0542459C24.2825 0.0697573 23.8826 0.102504 23.4896 0.152485C23.0966 0.202466 22.7113 0.267097 22.3337 0.346377C21.7742 0.465829 21.2236 0.6239 20.6856 0.819475C20.5147 0.884967 20.3439 0.953045 20.173 1.02371C20.0021 1.09437 19.8313 1.16934 19.6604 1.24862C19.4895 1.3279 19.3272 1.40977 19.1734 1.49422C18.8539 1.66657 18.5463 1.85098 18.2507 2.04746C17.8102 2.34202 17.3929 2.67046 17.0025 3.02985C16.3536 3.62821 15.7873 4.31163 15.3185 5.06184C15.0264 5.52414 14.7693 6.0081 14.5496 6.50957C14.4761 6.68192 14.4069 6.85427 14.342 7.02662C14.2771 7.19896 14.2156 7.38338 14.1575 7.57985C13.8125 8.72097 13.6397 9.90795 13.6449 11.1009C13.6359 12.2988 13.8026 13.4914 14.1395 14.6401C14.2535 15.0119 14.3878 15.377 14.5419 15.7337C14.9662 16.7468 15.5419 17.6884 16.2489 18.5257C16.4804 18.7971 16.726 19.056 16.9845 19.3013C17.1793 19.4857 17.3801 19.6624 17.5869 19.8313C17.7936 20.0002 18.0081 20.1613 18.2302 20.3147C18.5288 20.5216 18.8377 20.7131 19.1555 20.8886C19.3144 20.9765 19.4767 21.0627 19.6424 21.1472C19.8082 21.2316 19.9791 21.3092 20.1551 21.3798C20.3259 21.4539 20.4968 21.5246 20.6677 21.5918C21.2048 21.7946 21.7556 21.9587 22.3157 22.083C22.6917 22.164 23.0761 22.2304 23.4691 22.2821ZM23.6255 6.8896C23.8824 6.77565 24.1504 6.68901 24.4251 6.63107C24.708 6.57553 24.9956 6.54783 25.2838 6.54835C25.5711 6.54762 25.8579 6.57533 26.1398 6.63107C26.4114 6.68865 26.676 6.77532 26.9293 6.8896C27.4236 7.1024 27.8713 7.41166 28.2467 7.7996C28.3967 7.95944 28.5322 8.13247 28.6517 8.31665C28.7097 8.40454 28.7653 8.49503 28.8183 8.5881C28.9363 8.79666 29.0375 9.01453 29.1207 9.23957C29.2258 9.52891 29.3039 9.82751 29.3539 10.1315C29.4064 10.4536 29.4321 10.7796 29.4308 11.1061C29.4321 11.4412 29.4064 11.7758 29.3539 12.1066C29.3042 12.4165 29.2261 12.7212 29.1207 13.0166C29.0211 13.2966 28.8958 13.5666 28.7465 13.8232C28.6034 14.0689 28.4359 14.2993 28.2467 14.5109C27.8795 14.9239 27.4308 15.255 26.9293 15.4829C26.6763 15.5981 26.4116 15.6848 26.1398 15.7414C25.8581 15.7993 25.5713 15.8279 25.2838 15.8267C24.9954 15.8276 24.7078 15.7991 24.4251 15.7414C24.1502 15.6844 23.8821 15.5977 23.6255 15.4829C23.121 15.2603 22.6712 14.9284 22.308 14.5109C21.935 14.0702 21.648 13.5623 21.4622 13.014C21.349 12.7194 21.2632 12.4147 21.2059 12.104C21.1534 11.7732 21.1277 11.4386 21.129 11.1035C21.1278 10.7771 21.1535 10.4511 21.2059 10.1289C21.2633 9.82327 21.3491 9.52378 21.4622 9.2344C21.5135 9.09308 21.5699 8.95692 21.6314 8.82594C21.7503 8.57302 21.8946 8.33306 22.062 8.10983C22.1418 8.00263 22.2273 7.89993 22.3183 7.80219C22.6868 7.41009 23.1319 7.09935 23.6255 6.8896Z" fill="black"></path><path d="M45.0322 14.6272H51.3989V8.80265H45.0014V6.58969H52.2575V0.64624H38.1016V21.796H45.0322V14.6272Z" fill="black"></path><path d="M66.7881 8.80265H60.3906V6.58969H67.6467V0.64624H53.4883V21.796H60.4188V14.6272H66.7881V8.80265Z" fill="black"></path><path d="M75.8913 0.64624H68.7812V21.7986H75.8913V0.64624Z" fill="black"></path><path d="M107.012 15.881V13.9111H114.327V8.38384H107.012V6.56125H115.188V0.64624H100.379V21.796H115.188V15.881H107.012Z" fill="black"></path><path d="M10.4131 30.017H10.3875L8.7651 25.542H7.02734V31.8396H8.08589V26.7777H8.10127L9.97231 31.8396H10.7489L12.643 26.7777H12.661V31.8396H13.7656V25.542H12.0176L10.4131 30.017Z" fill="#9ACA3C"></path><path d="M16.877 25.542L14.1602 31.8396H15.4033L15.9671 30.3996H18.6763L19.2581 31.8396H20.5397L17.8382 25.542H16.877ZM16.3465 29.4379L17.3281 26.8863L18.2893 29.4483L16.3465 29.4379Z" fill="#9ACA3C"></path><path d="M26.1763 25.542H24.6769L22.0651 28.2642H22.0395V25.542H20.9297V31.8396H22.0395V28.683H22.0651L24.8102 31.8396H26.3711L23.257 28.4504L26.1763 25.542Z" fill="#9ACA3C"></path><path d="M27.8937 25.542H26.7812V31.8396H27.8937V25.542Z" fill="#9ACA3C"></path><path d="M33.4413 30.2575H33.4234L30.522 25.542H29.0508V31.8396H30.1606V26.9742H30.1785L33.1415 31.8396H34.5537V25.542H33.4413V30.2575Z" fill="#9ACA3C"></path><path d="M38.7864 29.1716H40.1013V30.7642C39.7056 30.9204 39.283 30.996 38.8582 30.9865C38.5397 30.992 38.2233 30.9331 37.9278 30.8133C37.6636 30.7046 37.4258 30.5397 37.2306 30.3298C37.0365 30.1172 36.8866 29.8676 36.7898 29.5956C36.6841 29.2971 36.632 28.9819 36.636 28.6649C36.633 28.3556 36.6851 28.0483 36.7898 27.7575C36.8868 27.4883 37.0348 27.2407 37.2255 27.0285C37.417 26.8189 37.6502 26.6524 37.9098 26.5399C38.1924 26.4182 38.4971 26.3574 38.8044 26.3615C39.1239 26.3579 39.4407 26.4213 39.7347 26.5476C39.9866 26.6494 40.2139 26.8046 40.4011 27.0026L41.1701 26.1676C40.8806 25.9089 40.5411 25.7135 40.173 25.5937C39.7313 25.4443 39.2677 25.3708 38.8018 25.3765C38.3449 25.3718 37.8909 25.4497 37.4613 25.6066C37.0642 25.7522 36.6999 25.9763 36.3899 26.2658C36.0825 26.5563 35.8389 26.9086 35.6748 27.2999C35.4976 27.7324 35.4104 28.197 35.4185 28.6649C35.4143 29.1266 35.5015 29.5845 35.6748 30.0118C35.8349 30.4067 36.074 30.764 36.3771 31.0615C36.6862 31.3611 37.0524 31.5942 37.4536 31.7465C37.8958 31.9144 38.3652 31.9977 38.8377 31.9921C39.2776 31.9975 39.7168 31.9541 40.1474 31.8629C40.5084 31.7837 40.8593 31.6632 41.1931 31.5035V28.2461H38.8044L38.7864 29.1716Z" fill="#9ACA3C"></path><path d="M47.5545 28.5229V28.5048C47.8574 28.4166 48.1294 28.2435 48.3388 28.0058C48.544 27.7597 48.6509 27.4455 48.6387 27.1243C48.6478 26.8856 48.5971 26.6484 48.4914 26.4347C48.3857 26.221 48.2283 26.0377 48.0338 25.9015C47.8487 25.7712 47.6408 25.6774 47.4212 25.6249C47.193 25.5684 46.959 25.5398 46.7241 25.5396H44.2891V31.8372H46.537C46.829 31.8375 47.1203 31.8063 47.4058 31.7441C47.6784 31.6891 47.9389 31.5849 48.1748 31.4365C48.3948 31.2945 48.5777 31.1012 48.7079 30.8729C48.8509 30.6067 48.9208 30.3068 48.9104 30.0042C48.9208 29.8149 48.8925 29.6252 48.8273 29.4473C48.762 29.2694 48.6612 29.107 48.531 28.9701C48.2645 28.7147 47.9205 28.5572 47.5545 28.5229ZM45.4015 26.4676H46.2935C46.6153 26.4463 46.9372 26.5076 47.229 26.646C47.3297 26.7089 47.4111 26.7987 47.464 26.9056C47.517 27.0124 47.5394 27.1319 47.5289 27.2509C47.5348 27.3721 47.5113 27.4929 47.4604 27.6028C47.4095 27.7128 47.3327 27.8086 47.2367 27.8818C46.9859 28.0461 46.6892 28.124 46.3909 28.104H45.4015V26.4676ZM47.6545 30.4541C47.5656 30.5766 47.4474 30.6744 47.311 30.7385C47.1675 30.8053 47.0144 30.8489 46.8573 30.8677C46.7052 30.8876 46.552 30.898 46.3986 30.8987H45.4015V29.0658H46.4421C46.7949 29.0424 47.1477 29.11 47.4674 29.2623C47.5815 29.335 47.6734 29.4382 47.7327 29.5606C47.792 29.6829 47.8164 29.8195 47.8031 29.955C47.8087 30.1332 47.7565 30.3085 47.6545 30.4541Z" fill="#9ACA3C"></path><path d="M53.6368 29.4715C53.6364 29.6566 53.6123 29.8408 53.565 30.0196C53.5204 30.195 53.4411 30.3595 53.3318 30.5031C53.2159 30.6508 53.0676 30.7693 52.8986 30.8495C52.4719 31.0276 51.9925 31.0276 51.5658 30.8495C51.3968 30.7693 51.2485 30.6508 51.1326 30.5031C51.0233 30.3595 50.9439 30.195 50.8994 30.0196C50.8521 29.8408 50.828 29.6566 50.8276 29.4715V25.542H49.7153V29.5284C49.7091 29.8825 49.7736 30.2341 49.9049 30.5625C50.0247 30.8564 50.2056 31.1209 50.4355 31.3381C50.6661 31.5544 50.937 31.7222 51.2326 31.8319C51.8775 32.0634 52.5818 32.0634 53.2267 31.8319C53.5219 31.7231 53.7921 31.5551 54.0212 31.3381C54.2482 31.119 54.428 30.8549 54.5492 30.5625C54.6838 30.2349 54.7501 29.8829 54.744 29.5284V25.542H53.6316L53.6368 29.4715Z" fill="#9ACA3C"></path><path d="M59.1892 28.6959C59.0081 28.559 58.8088 28.4485 58.5971 28.3676C58.3818 28.2849 58.1742 28.2107 57.9743 28.1453C57.7744 28.0798 57.6129 28.0263 57.4899 27.985C57.3578 27.9392 57.232 27.8766 57.1156 27.7988C57.0163 27.7321 56.9331 27.6438 56.8722 27.5403C56.811 27.4289 56.7809 27.303 56.785 27.1758C56.7814 27.0368 56.8169 26.8996 56.8875 26.7802C56.9529 26.676 57.0405 26.5877 57.1438 26.5217C57.2527 26.4518 57.3722 26.4003 57.4975 26.3692C57.6241 26.337 57.7541 26.3205 57.8846 26.3201C58.1096 26.3217 58.3313 26.3747 58.533 26.4752C58.7267 26.5632 58.8971 26.6961 59.0303 26.863L59.7531 26.0616C59.509 25.8303 59.2189 25.654 58.9021 25.5445C58.5915 25.4349 58.2649 25.3782 57.9358 25.3765C57.6545 25.3765 57.3745 25.4138 57.1028 25.4876C56.8408 25.5565 56.5927 25.6711 56.3698 25.8263C56.1591 25.9772 55.984 26.1731 55.8572 26.4002C55.7199 26.6535 55.6518 26.939 55.6598 27.2275C55.6516 27.4823 55.6998 27.7358 55.8008 27.9695C55.8888 28.1594 56.0134 28.3299 56.1673 28.471C56.3193 28.6079 56.4925 28.7188 56.6799 28.7993C56.8638 28.8812 57.0521 28.9529 57.2438 29.0139L57.8 29.2C57.9603 29.2519 58.1143 29.3222 58.2588 29.4094C58.3795 29.482 58.4842 29.5788 58.5663 29.6938C58.6466 29.8162 58.687 29.9608 58.6817 30.1074C58.6866 30.258 58.6512 30.4072 58.5792 30.5392C58.5151 30.653 58.4277 30.7517 58.3229 30.8287C58.2123 30.907 58.0879 30.9631 57.9563 30.9942C57.8263 31.0262 57.6929 31.0427 57.5591 31.0433C57.2971 31.0398 57.0394 30.9761 56.8055 30.8572C56.5611 30.74 56.3503 30.5621 56.1929 30.3401L55.3984 31.0872C55.6541 31.3898 55.9823 31.6212 56.3518 31.7594C56.7308 31.909 57.1341 31.9862 57.5411 31.9869C57.8369 31.9887 58.1313 31.9468 58.4151 31.8628C58.6779 31.7865 58.9235 31.6592 59.1379 31.488C59.347 31.3182 59.5159 31.1036 59.6326 30.8597C59.761 30.5834 59.8242 30.2807 59.8171 29.9756C59.8267 29.7065 59.7676 29.4394 59.6454 29.2C59.5303 29.0014 59.3748 28.8296 59.1892 28.6959Z" fill="#9ACA3C"></path><path d="M61.8077 25.542H60.6953V31.8396H61.8077V25.542Z" fill="#9ACA3C"></path><path d="M67.3515 30.2575H67.3361L64.4321 25.542H62.9609V31.8396H64.0707V26.9742H64.0887L67.0516 31.8396H68.4638V25.542H67.3515V30.2575Z" fill="#9ACA3C"></path><path d="M70.727 29.0657H73.5925V28.1221H70.727V26.5218H73.7514V25.542H69.6172V31.8396H73.9104V30.8443H70.727V29.0657Z" fill="#9ACA3C"></path><path d="M78.1033 28.6959C77.9222 28.559 77.7229 28.4485 77.5112 28.3676C77.2959 28.2849 77.0883 28.2107 76.8884 28.1453C76.6885 28.0798 76.527 28.0263 76.404 27.985C76.2719 27.9392 76.1462 27.8766 76.0298 27.7988C75.9304 27.7321 75.8472 27.6438 75.7863 27.5403C75.7252 27.4289 75.6951 27.303 75.6991 27.1758C75.6955 27.0368 75.731 26.8996 75.8017 26.7802C75.867 26.676 75.9546 26.5877 76.058 26.5217C76.1668 26.4518 76.2863 26.4003 76.4117 26.3692C76.5382 26.337 76.6682 26.3205 76.7987 26.3201C77.0237 26.3217 77.2454 26.3747 77.4471 26.4752C77.6408 26.5632 77.8112 26.6961 77.9444 26.863L78.6672 26.0616C78.4231 25.8303 78.133 25.654 77.8162 25.5445C77.5056 25.4349 77.179 25.3782 76.8499 25.3765C76.5686 25.3765 76.2886 25.4138 76.0169 25.4876C75.7548 25.5562 75.5067 25.6709 75.2839 25.8263C75.0732 25.9772 74.8981 26.1731 74.7713 26.4002C74.634 26.6535 74.5659 26.939 74.5739 27.2275C74.5657 27.4823 74.6139 27.7358 74.7149 27.9695C74.803 28.1594 74.9276 28.3299 75.0814 28.471C75.2334 28.6079 75.4066 28.7188 75.594 28.7993C75.7779 28.8812 75.9662 28.9529 76.1579 29.0139L76.7141 29.2C76.8745 29.2519 77.0284 29.3222 77.1729 29.4094C77.2937 29.482 77.3984 29.5788 77.4805 29.6938C77.5608 29.8162 77.6011 29.9608 77.5958 30.1074C77.6007 30.258 77.5653 30.4072 77.4933 30.5392C77.4292 30.653 77.3418 30.7517 77.237 30.8287C77.1264 30.907 77.002 30.9631 76.8705 30.9942C76.7404 31.0262 76.6071 31.0427 76.4732 31.0433C76.2112 31.0398 75.9535 30.9761 75.7196 30.8572C75.4753 30.74 75.2644 30.5621 75.1071 30.3401L74.3125 31.0872C74.5682 31.3898 74.8964 31.6212 75.266 31.7594C75.645 31.909 76.0483 31.9862 76.4552 31.9869C76.751 31.9887 77.0454 31.9468 77.3292 31.8628C77.5921 31.7865 77.8376 31.6592 78.052 31.488C78.2611 31.3182 78.43 31.1036 78.5467 30.8597C78.6751 30.5834 78.7383 30.2807 78.7312 29.9756C78.7408 29.7065 78.6817 29.4394 78.5595 29.2C78.4444 29.0014 78.2889 28.8296 78.1033 28.6959Z" fill="#9ACA3C"></path><path d="M82.9564 28.6959C82.7753 28.559 82.576 28.4485 82.3644 28.3676C82.1491 28.2849 81.9415 28.2107 81.7415 28.1452C81.5416 28.0798 81.3801 28.0263 81.2571 27.985C81.125 27.9392 80.9993 27.8766 80.8829 27.7988C80.7836 27.7321 80.7004 27.6438 80.6394 27.5403C80.5783 27.4289 80.5482 27.303 80.5523 27.1758C80.5486 27.0368 80.5842 26.8996 80.6548 26.7802C80.7202 26.676 80.8077 26.5877 80.9111 26.5217C81.02 26.4518 81.1394 26.4003 81.2648 26.3692C81.3913 26.337 81.5213 26.3205 81.6518 26.3201C81.8768 26.3217 82.0985 26.3747 82.3003 26.4752C82.494 26.5632 82.6643 26.6961 82.7975 26.863L83.5203 26.0616C83.2762 25.8303 82.9862 25.654 82.6694 25.5445C82.3587 25.4349 82.0322 25.3782 81.7031 25.3765C81.4218 25.3765 81.1417 25.4138 80.8701 25.4876C80.6138 25.5598 80.3719 25.6761 80.155 25.8315C79.9443 25.9823 79.7692 26.1783 79.6424 26.4054C79.5051 26.6586 79.437 26.9441 79.445 27.2327C79.4368 27.4875 79.485 27.7409 79.586 27.9746C79.6741 28.1646 79.7986 28.3351 79.9525 28.4762C80.1045 28.613 80.2777 28.7239 80.4651 28.8045C80.649 28.8864 80.8373 28.958 81.029 29.0191L81.5852 29.2052C81.7455 29.2571 81.8995 29.3273 82.044 29.4146C82.1647 29.4871 82.2694 29.5839 82.3515 29.699C82.4318 29.8213 82.4722 29.966 82.4669 30.1126C82.4718 30.2632 82.4364 30.4124 82.3644 30.5443C82.3003 30.6581 82.2129 30.7569 82.1081 30.8339C81.9975 30.9121 81.8731 30.9683 81.7415 30.9993C81.6115 31.0314 81.4781 31.0479 81.3443 31.0485C81.0823 31.0449 80.8246 30.9813 80.5907 30.8623C80.3463 30.7452 80.1355 30.5673 79.9781 30.3453L79.1836 31.0924C79.4393 31.3949 79.7675 31.6264 80.137 31.7646C80.516 31.9142 80.9193 31.9914 81.3263 31.9921C81.6221 31.9938 81.9165 31.952 82.2003 31.868C82.4631 31.7917 82.7087 31.6643 82.9231 31.4931C83.1321 31.3233 83.3011 31.1087 83.4178 30.8649C83.5462 30.5885 83.6094 30.2859 83.6023 29.9808C83.6119 29.7117 83.5528 29.4446 83.4306 29.2052C83.3109 29.0029 83.1491 28.8291 82.9564 28.6959Z" fill="#9ACA3C"></path><path d="M89.7805 28.6959C89.5994 28.559 89.4001 28.4485 89.1885 28.3676C88.9732 28.2849 88.7656 28.2107 88.5657 28.1453C88.3657 28.0798 88.2043 28.0263 88.0812 27.985C87.9492 27.9392 87.8234 27.8766 87.707 27.7988C87.6077 27.7321 87.5245 27.6438 87.4635 27.5403C87.4024 27.4289 87.3723 27.303 87.3764 27.1758C87.3727 27.0368 87.4083 26.8996 87.4789 26.7802C87.5443 26.676 87.6318 26.5877 87.7352 26.5217C87.8473 26.4508 87.9703 26.3992 88.0992 26.3692C88.2257 26.337 88.3557 26.3205 88.4862 26.3201C88.7112 26.3217 88.9329 26.3747 89.1347 26.4752C89.3283 26.5632 89.4987 26.6961 89.6319 26.863L90.3547 26.0616C90.1106 25.8303 89.8205 25.654 89.5037 25.5445C89.1931 25.4349 88.8665 25.3782 88.5375 25.3765C88.2562 25.3765 87.9761 25.4138 87.7045 25.4876C87.4424 25.5565 87.1943 25.6711 86.9714 25.8263C86.7607 25.9772 86.5857 26.1731 86.4588 26.4002C86.3215 26.6535 86.2534 26.939 86.2614 27.2275C86.2532 27.4823 86.3014 27.7358 86.4024 27.9695C86.4905 28.1594 86.6151 28.3299 86.7689 28.471C86.9209 28.6079 87.0941 28.7188 87.2815 28.7993C87.4655 28.8812 87.6537 28.9529 87.8454 29.0139L88.4016 29.2C88.562 29.2519 88.7159 29.3222 88.8604 29.4094C88.9812 29.482 89.0859 29.5788 89.168 29.6938C89.2483 29.8162 89.2886 29.9608 89.2833 30.1074C89.2883 30.258 89.2528 30.4072 89.1808 30.5392C89.1167 30.653 89.0294 30.7517 88.9245 30.8287C88.8139 30.907 88.6895 30.9631 88.558 30.9942C88.4279 31.0262 88.2946 31.0427 88.1607 31.0433C87.8987 31.0398 87.641 30.9761 87.4071 30.8572C87.1628 30.74 86.9519 30.5621 86.7946 30.3401L86 31.0872C86.2557 31.3898 86.5839 31.6212 86.9535 31.7594C87.3325 31.909 87.7358 31.9862 88.1427 31.9869C88.4385 31.9887 88.7329 31.9468 89.0167 31.8628C89.2796 31.7865 89.5251 31.6592 89.7395 31.488C89.9486 31.3182 90.1175 31.1036 90.2342 30.8597C90.3563 30.5863 90.415 30.2883 90.4059 29.9885C90.4155 29.7194 90.3564 29.4524 90.2342 29.213C90.1213 29.0099 89.9666 28.8336 89.7805 28.6959Z" fill="#9ACA3C"></path><path d="M92.3975 25.542H91.2852V31.8396H92.3975V25.542Z" fill="#9ACA3C"></path><path d="M96.9392 30.017H96.911L95.2886 25.542H93.5508V31.8396H94.6094V26.7777H94.6273L96.4958 31.8396H97.2724L99.1691 26.7777H99.187V31.8396H100.29V25.542H98.5437L96.9392 30.017Z" fill="#9ACA3C"></path><path d="M105.194 25.9608C104.971 25.805 104.719 25.6959 104.453 25.6402C104.133 25.5715 103.806 25.5385 103.479 25.542H101.441V31.8396H102.554V29.2337H103.41C103.724 29.2353 104.038 29.2023 104.345 29.1355C104.618 29.0781 104.879 28.9712 105.114 28.8201C105.329 28.6742 105.505 28.4771 105.627 28.2462C105.765 27.9736 105.832 27.6703 105.822 27.3646C105.83 27.0771 105.773 26.7916 105.655 26.5296C105.551 26.3041 105.392 26.1085 105.194 25.9608ZM104.602 27.8299C104.525 27.9484 104.419 28.0446 104.294 28.1091C104.156 28.1801 104.007 28.2282 103.853 28.2513C103.684 28.2777 103.512 28.2907 103.341 28.2901H102.572V26.4804H103.384C103.55 26.4802 103.717 26.4906 103.881 26.5115C104.032 26.5288 104.179 26.5726 104.315 26.6407C104.448 26.705 104.559 26.8081 104.633 26.9367C104.708 27.0653 104.742 27.2134 104.732 27.362C104.736 27.5273 104.692 27.6901 104.604 27.8299H104.602Z" fill="#9ACA3C"></path><path d="M107.715 25.542H106.605V31.8396H110.37V30.8443H107.715V25.542Z" fill="#9ACA3C"></path><path d="M112.001 29.0657H114.869V28.1221H112.001V26.5218H115.187V25.542H110.891V31.8396H115.187V30.8443H112.001V29.0657Z" fill="#9ACA3C"></path><path d="M88.1685 22.4424C90.8977 22.4415 93.5315 21.4289 95.5688 19.597C97.6061 17.7652 98.9048 15.242 99.2179 12.5073H92.5539C92.2499 13.5657 91.5807 14.4795 90.6672 15.0837C89.7536 15.6879 88.6559 15.9427 87.5725 15.8019C86.489 15.6612 85.4911 15.1343 84.7591 14.3164C84.0271 13.4985 83.6092 12.4435 83.5809 11.342C83.5527 10.2405 83.9159 9.16507 84.605 8.31006C85.2941 7.45504 86.2636 6.87678 87.3384 6.67973C88.4132 6.48268 89.5225 6.67983 90.4658 7.23557C91.4091 7.79131 92.1243 8.669 92.4821 9.71009H99.1769C98.8885 7.57537 97.9968 5.56954 96.6085 3.93228C95.2201 2.29501 93.3938 1.09554 91.3477 0.477184C89.3016 -0.141169 87.1222 -0.152256 85.07 0.445248C83.0178 1.04275 81.1796 2.22358 79.7749 3.84664C78.3702 5.4697 77.4586 7.46635 77.1488 9.59803C76.8391 11.7297 77.1444 13.9063 78.0282 15.8676C78.912 17.829 80.337 19.4922 82.1329 20.6585C83.9288 21.8249 86.0197 22.4451 88.1557 22.4449L88.1685 22.4424Z" fill="black"></path></g><defs><clipPath id="clip0_1166_2580"><rect width="115" height="32" fill="white" transform="translate(0.1875)"></rect></clipPath></defs></svg>