<svg xmlns="http://www.w3.org/2000/svg" width="63" height="40" viewBox="0 0 63 40" fill="none"><g clip-path="url(#clip0_1166_2575)"><path d="M34.7166 13.7246C32.7606 13.7246 31.6196 14.1158 30.6742 14.507C29.8918 14.833 29.0116 15.2894 28.3922 15.7784V2.47765L24.2521 0.293457C24.2521 0.293457 24.2521 21.1574 24.2521 22.4939C24.2521 23.8305 20.6661 34.8167 13.9505 34.7841C11.9945 34.7841 9.35394 34.0017 7.82175 32.4043C6.35476 30.8721 5.40936 29.1769 5.37676 26.6015C5.37676 24.4499 6.06136 22.6243 7.78915 20.864C8.79975 19.8208 10.6905 18.6472 12.9725 18.5494C15.1567 18.4516 17.4061 19.2014 19.0035 20.7336L19.4273 21.1574L22.1983 17.1802C19.9163 14.8004 16.2977 13.7898 13.5593 13.7246C10.2341 13.692 6.87636 14.996 4.39877 17.4736C2.05158 19.8208 0.617188 23.0155 0.617188 26.5689C0.617188 29.8941 1.92118 33.2193 4.30097 35.5991C7.00676 38.3049 10.1689 39.4459 13.2659 39.4459C15.3197 39.4785 17.8951 39.0221 20.1119 37.5877C21.8397 36.4793 23.1437 35.3709 24.2521 33.2193V39.4459H28.3922V27.7425C28.3922 26.7319 28.3922 26.0147 28.4248 25.5257C28.4574 25.0367 28.49 24.3521 28.5878 23.4719C28.6856 22.6569 28.9464 22.0701 29.1746 21.6138C29.3702 21.2226 29.7614 20.6358 30.1852 20.2772C30.5764 19.9186 31.0654 19.4948 31.587 19.2666C32.2064 19.0058 33.1518 18.7124 33.9994 18.7124H34.0646C35.499 18.745 36.803 19.3644 37.455 19.9838C37.4876 20.0164 37.5528 20.049 37.5854 20.1142C38.1396 20.5706 39.4436 21.6789 39.4436 25.1345V39.4785H44.0076V23.7001C43.9424 20.6684 43.0296 18.1908 41.7256 16.8216C39.8022 14.8004 37.3898 13.7246 34.7166 13.7246Z" fill="#27AAE1"></path><path d="M62.1673 39.4458L51.1811 24.7432L59.5919 16.4955L60.1461 15.9413L56.3645 13.7571L45.7695 24.1564V30.0244L48.0841 27.775L56.6253 39.4458H62.1347H62.1673Z" fill="#27AAE1"></path></g><defs><clipPath id="clip0_1166_2575"><rect width="62.6895" height="40" fill="white" transform="translate(0.0625)"></rect></clipPath></defs></svg>