<svg xmlns="http://www.w3.org/2000/svg" width="107" height="30" viewBox="0 0 107 30" fill="none"><path d="M40.5639 6.78741C40.5639 4.83388 39.4117 3.34 38.6051 2.82289C37.0496 1.73121 35.1484 1.55884 33.3624 1.55884C32.4982 1.55884 30.309 1.67375 29.3296 1.67375C28.7535 1.67375 26.737 1.67375 26.9675 1.73121C27.5436 2.13341 27.5436 2.82289 27.6012 3.85711C27.6588 4.77642 27.6588 5.58082 27.6588 10.005V15.1187C27.6588 16.1529 27.6588 17.1296 27.6588 17.9915H31.0579C31.0579 17.1296 31.0579 16.0954 31.0579 15.0612V14.659C31.0579 14.4866 31.1732 14.4292 31.2884 14.4292L33.7657 14.4866C33.9385 14.4866 34.1114 14.4866 34.2842 14.7165C34.5723 15.0612 35.4365 16.67 36.4735 18.049H40.3335C39.2965 16.67 38.1442 15.0612 36.7615 13.3375C39.6422 10.9243 40.5639 8.91332 40.5639 6.78741ZM35.4941 12.5906C34.9756 12.9928 34.6299 13.1077 33.4777 13.1077C32.7863 13.1077 31.9221 12.9928 31.2884 12.8204C31.1156 12.7055 31.0579 12.5906 31.0579 12.3033V3.45491C31.0579 3.22509 31.1156 3.11017 31.2884 3.05272C31.5764 2.9378 32.095 2.9378 32.7863 2.9378C34.4571 2.9378 37.1648 4.1444 37.1648 8.28129C37.1648 10.637 36.3583 11.9585 35.4941 12.5906Z" fill="url(#paint0_linear_1166_2500)"></path><path d="M6.45849 17.9915C5.36386 16.2104 4.73013 13.9696 4.73013 11.4989C4.73013 7.9366 5.0758 6.21289 6.57372 4.71901C9.28149 2.01854 13.7752 1.90363 18.6147 4.37427C21.3224 5.75324 22.0138 6.67255 21.8985 6.21289C20.6887 1.84617 18.6723 1.44397 15.0427 1.09923C11.4131 0.869403 8.53253 1.32906 5.76715 3.05276C3.1746 4.66156 0.8125 7.87914 0.8125 12.5331C0.8125 14.659 1.2734 16.4977 2.02236 17.9915H6.45849Z" fill="url(#paint1_linear_1166_2500)"></path><path d="M94.6034 17.8191L88.6117 3.05273C88.266 2.13342 88.0932 1.67376 87.8051 1.67376C87.5747 1.67376 87.4018 1.90359 87.1138 2.70799L81.6406 17.9341H83.3114C84.8093 13.9695 86.6529 8.97078 86.9986 7.93656L91.0314 17.9341H95.1219C96.735 12.7629 99.9037 5.351 106.356 0.352255C106.529 0.237341 106.932 -0.0499433 106.587 0.00751354C94.3153 1.96105 95.1219 15.8656 94.6034 17.8191Z" fill="url(#paint2_linear_1166_2500)"></path><path d="M67.7569 17.9916C68.6787 16.2679 69.1972 14.1994 69.1972 12.0161C69.1972 5.35109 64.7611 1.15674 57.6748 1.15674C49.1482 1.15674 45.9219 7.59191 45.9219 12.5332C45.9219 14.3144 46.3252 16.2679 47.1893 17.9916H51.3374C50.358 16.2104 49.8971 14.0271 49.8971 11.6139C49.8971 4.37432 53.6419 2.5357 56.9258 2.5357C61.5924 2.5357 65.2796 6.55768 65.2796 13.1078C65.2796 15.1762 64.9915 16.7275 64.5882 17.9916H67.7569Z" fill="url(#paint3_linear_1166_2500)"></path><path d="M17.6375 14.8889C17.6375 15.6933 17.6375 16.6701 17.6951 17.9916H21.2094C21.2094 16.7276 21.2094 15.6933 21.2094 14.8889C21.267 13.8547 21.267 13.9696 21.267 12.7056C21.6127 12.6481 20.0572 12.6481 19.1354 12.6481C18.2712 12.6481 15.0449 12.5332 14.9297 12.763C14.9873 12.9929 14.9873 13.1078 15.1601 13.1652C16.1972 13.3951 17.5798 14.1994 17.6375 14.8889Z" fill="url(#paint4_linear_1166_2500)"></path><path d="M74.8432 1.73128C74.6128 1.73128 74.2095 1.67383 72.7116 1.67383C72.3083 1.67383 72.942 2.19094 72.9997 2.47822C73.4029 3.11025 73.4606 3.34008 73.8062 4.43176L78.1848 17.9916H81.6415C81.0077 16.2679 76.6868 1.67383 76.3988 1.67383C74.728 1.67383 75.0737 1.73128 74.8432 1.73128Z" fill="url(#paint5_linear_1166_2500)"></path><path d="M94.3191 25.3461C93.743 25.3461 93.2821 25.6908 93.2821 26.2654C93.2821 26.6101 93.4549 26.84 93.8006 27.0123C93.9734 27.1273 94.1463 27.1847 94.3191 27.2996C94.5495 27.4145 94.6648 27.5295 94.6648 27.7018C94.6648 27.9317 94.4919 28.104 94.1462 28.104C93.9158 28.104 93.6277 27.9891 93.3973 27.8742C93.3397 27.9317 93.2821 27.9891 93.2245 28.104C93.2245 28.1615 93.2245 28.2764 93.2821 28.2764C93.4549 28.3913 93.743 28.5062 94.031 28.5062C94.6071 28.5062 95.1833 28.2189 95.1833 27.5295C95.1833 27.2422 95.068 27.0123 94.7224 26.84C94.5495 26.7251 94.3191 26.6101 94.0886 26.4952C93.9158 26.3803 93.8006 26.2654 93.8006 26.093C93.8006 25.8632 93.9734 25.6908 94.2615 25.6908C94.4343 25.6908 94.6072 25.7483 94.78 25.8058C94.9528 25.8058 95.0104 25.6334 95.0104 25.5185C94.8376 25.4036 94.5495 25.3461 94.3191 25.3461ZM91.5537 25.6908C92.0146 25.6908 92.1874 26.0356 92.1874 26.4378C92.1874 26.4952 92.1298 26.5527 92.0146 26.6101C91.8994 26.6101 91.2656 26.6101 90.7471 26.6101C90.8624 26.0356 91.208 25.6908 91.5537 25.6908ZM92.5907 27.9317C92.4755 27.9891 92.1298 28.104 91.8418 28.104C91.208 28.104 90.8047 27.7018 90.8047 27.0123C91.3233 27.0123 92.0146 27.0123 92.1874 27.0123C92.4179 26.9549 92.7636 26.8974 92.7636 26.7825C92.7636 26.7251 92.7636 26.6101 92.7636 26.5527C92.7636 25.9781 92.4179 25.4036 91.6113 25.4036C90.6895 25.4036 90.171 26.1505 90.171 27.0698C90.171 28.0466 90.6895 28.6211 91.6689 28.6211C91.957 28.6211 92.2451 28.5062 92.3603 28.4488C92.4755 28.3339 92.5907 28.104 92.5907 27.9317ZM89.4797 25.8058C89.4797 25.4036 89.4797 25.4036 89.3644 25.4036C89.2492 25.4036 88.9612 25.4036 88.8459 25.461C88.8459 25.6334 88.8459 25.8058 88.8459 26.2654V27.4145C88.8459 27.8167 88.8459 28.2189 88.8459 28.5062C89.0188 28.5062 89.1916 28.5062 89.3068 28.4488C89.4221 28.4488 89.4221 28.3913 89.4221 28.2764V25.8058H89.4797ZM89.1916 23.9671C89.0188 23.9671 88.8459 24.082 88.8459 24.3119C88.8459 24.5417 88.9612 24.6566 89.1916 24.6566C89.3644 24.6566 89.5373 24.4842 89.5373 24.3119C89.5373 24.082 89.3644 23.9671 89.1916 23.9671ZM87.348 28.3913C87.348 28.4488 87.4056 28.5062 87.4632 28.5062C87.6361 28.5062 87.8089 28.4488 87.9817 28.4488C87.9817 28.2764 87.9817 27.9891 87.9817 27.5869V26.6101C87.9817 25.9207 87.7513 25.3461 86.9447 25.3461C86.5414 25.3461 86.1958 25.5759 85.9077 25.8632C85.9077 25.6908 85.8501 25.3461 85.6197 25.3461C85.5044 25.3461 85.274 25.461 85.274 25.5759C85.3316 25.6334 85.3892 25.7483 85.3892 25.9781V27.1273C85.3892 27.7593 85.3892 28.1615 85.3892 28.3913C85.562 28.3913 85.6773 28.3913 85.8501 28.3913C85.9653 28.3913 86.0229 28.3339 86.0229 28.2189V26.1505C86.1958 25.9781 86.4262 25.7483 86.8295 25.7483C87.2328 25.7483 87.4632 26.0356 87.4632 26.5527L87.348 28.3913ZM82.6814 27.6444C82.6814 27.2422 83.1999 27.0698 83.7761 26.9549V27.5295C83.7761 27.6444 83.7761 27.7018 83.7184 27.7593C83.6032 27.9317 83.4304 28.104 83.1423 28.104C82.8543 28.104 82.6814 27.9317 82.6814 27.6444ZM84.6979 28.104C84.6402 28.104 84.5826 28.104 84.5826 28.104C84.4098 28.104 84.3522 28.0466 84.3522 27.8742C84.3522 27.472 84.3522 26.7825 84.3522 26.4952C84.3522 25.8632 84.0065 25.3461 83.3152 25.3461C82.8543 25.3461 82.3934 25.6334 82.1629 25.8058C82.1629 25.9781 82.2782 26.1505 82.451 26.0356C82.6238 25.9207 82.9119 25.8058 83.1423 25.8058C83.5456 25.8058 83.7184 26.093 83.7184 26.4378V26.6676C83.6032 26.6676 83.488 26.7251 83.3728 26.7251C82.9695 26.84 82.0477 27.0123 82.0477 27.7593C82.0477 28.1615 82.3934 28.5637 82.8543 28.5637C83.2 28.5637 83.5456 28.3339 83.7184 28.104C83.7761 28.3339 83.8913 28.5637 84.1793 28.5637C84.525 28.5637 84.6979 28.3913 84.6979 28.104ZM79.3399 26.1505C79.4552 26.0356 79.8008 25.8058 80.1465 25.8058C80.6074 25.8058 81.0107 26.208 81.0107 26.84C81.0107 27.8167 80.3769 28.104 79.9737 28.104C79.7432 28.104 79.5128 28.0466 79.3975 27.9317V26.1505H79.3399ZM79.3399 28.3913C79.5128 28.5062 79.7432 28.5637 79.9737 28.5637C80.8955 28.5637 81.5868 27.8742 81.5868 26.84C81.5868 25.8632 80.9531 25.4036 80.377 25.4036C80.0313 25.4036 79.7432 25.5759 79.2823 25.8632C79.2823 25.5759 79.1671 25.4036 78.9943 25.4036C78.8214 25.4036 78.6486 25.5185 78.591 25.6334V25.6908C78.6486 25.7483 78.7062 25.8632 78.7062 26.093V28.7935C78.7062 29.4255 78.7062 29.8277 78.7062 30.0001C78.879 30.0001 78.9943 30.0001 79.1671 30.0001C79.2823 29.9426 79.2823 29.9426 79.2823 29.8277V28.3913H79.3399ZM73.8668 26.208C74.0396 26.0356 74.3277 25.8058 74.6157 25.8058C75.019 25.8058 75.2495 26.093 75.2495 26.6101V27.1847C75.2495 27.8167 75.2495 28.2189 75.2495 28.4488C75.4223 28.4488 75.5375 28.4488 75.7104 28.4488C75.8256 28.4488 75.8256 28.3913 75.8256 28.2764V26.208C75.9984 26.0356 76.2289 25.8058 76.5745 25.8058C76.9778 25.8058 77.2083 26.093 77.2083 26.6101V28.3913C77.2083 28.4488 77.2083 28.5062 77.3235 28.5062C77.4963 28.5062 77.6692 28.4488 77.842 28.4488C77.842 28.2764 77.842 27.9891 77.842 27.5869V26.5527C77.842 25.9207 77.554 25.3461 76.8626 25.3461C76.4593 25.3461 76.056 25.6334 75.768 25.9207C75.5951 25.5759 75.3647 25.3461 74.9038 25.3461C74.5005 25.3461 74.1548 25.5759 73.8668 25.8632C73.8668 25.6334 73.8092 25.3461 73.5787 25.3461C73.4635 25.3461 73.233 25.461 73.1754 25.5759C73.233 25.6334 73.2907 25.7483 73.2907 25.9781V27.1847C73.2907 27.8167 73.2907 28.2189 73.2907 28.4488C73.4635 28.4488 73.5787 28.4488 73.7516 28.4488C73.8668 28.4488 73.8668 28.3913 73.8668 28.2764V26.208ZM71.0438 25.7483C71.6775 25.7483 71.9656 26.3229 71.9656 26.9549C71.9656 27.8167 71.5623 28.1615 71.1014 28.1615C70.5829 28.1615 70.1796 27.7593 70.1796 26.8974C70.1796 26.1505 70.5829 25.7483 71.0438 25.7483ZM71.1014 25.3461C70.1796 25.3461 69.5459 26.0356 69.5459 26.9549C69.5459 27.7593 70.0644 28.5062 71.0438 28.5062C71.9656 28.5062 72.5417 27.8167 72.5417 26.8974C72.5417 26.0356 72.0232 25.3461 71.1014 25.3461ZM69.1426 27.9317C68.9697 27.9891 68.6817 28.0466 68.3936 28.0466C67.9327 28.0466 67.2414 27.8167 67.2414 26.8974C67.2414 26.208 67.6447 25.7483 68.2784 25.7483C68.5088 25.7483 68.7393 25.8058 68.9121 25.9207C69.085 25.9207 69.1426 25.7483 69.1426 25.5759C69.0274 25.461 68.7393 25.3461 68.2784 25.3461C67.3566 25.3461 66.6076 26.0356 66.6076 27.0123C66.6076 28.2189 67.4718 28.5637 68.1632 28.5637C68.4512 28.5637 68.7393 28.5062 68.9121 28.3913C69.085 28.2764 69.1426 28.104 69.1426 27.9317ZM62.5748 28.9659C62.5748 28.7361 62.7476 28.5637 62.9205 28.4488C62.9781 28.3913 63.0933 28.3913 63.2085 28.3913C63.3814 28.3913 63.6118 28.3913 63.8999 28.4488C64.3032 28.5062 64.4184 28.6786 64.4184 28.9084C64.4184 29.3106 64.0151 29.5404 63.4966 29.5404C63.0357 29.5404 62.5748 29.3681 62.5748 28.9659ZM63.3814 25.6908C63.7846 25.6908 63.9575 26.0356 63.9575 26.4378C63.9575 26.84 63.7846 27.1847 63.3814 27.1847C63.0357 27.1847 62.7476 26.8974 62.7476 26.4952C62.7476 25.9781 63.0357 25.6908 63.3814 25.6908ZM63.3814 25.3461C62.69 25.3461 62.1715 25.8058 62.1715 26.4378C62.1715 26.84 62.402 27.1847 62.7476 27.3571C62.6324 27.472 62.4596 27.5869 62.3443 27.7018C62.2867 27.7018 62.2867 27.7593 62.2867 27.7593C62.2867 27.9891 62.4596 28.2189 62.69 28.2764C62.3443 28.4488 62.0563 28.7361 62.0563 29.0233C62.0563 29.483 62.5172 29.9426 63.3814 29.9426C64.1879 29.9426 64.9369 29.483 64.9369 28.7361C64.9369 28.3339 64.7064 27.9891 64.1303 27.9317C63.8999 27.9317 63.6118 27.9317 63.2661 27.8742C62.9781 27.8742 62.8629 27.7593 62.8629 27.6444C62.8629 27.5869 62.9781 27.5295 63.0357 27.4145C63.1509 27.472 63.1509 27.472 63.3238 27.472C63.8999 27.472 64.476 27.1273 64.476 26.3803C64.476 26.208 64.4184 26.0356 64.3608 25.8632C64.4184 25.8632 64.5336 25.8632 64.5912 25.8632C64.8217 25.8632 64.9369 25.7483 64.9369 25.5185C64.9369 25.461 64.9369 25.4036 64.9369 25.4036C64.8217 25.461 64.6488 25.461 64.476 25.461C64.3032 25.461 64.1303 25.4036 63.9575 25.3461C63.727 25.4036 63.5542 25.3461 63.3814 25.3461ZM60.8464 28.3913C60.8464 28.4488 60.8464 28.5062 60.9617 28.5062C61.1345 28.5062 61.3073 28.4488 61.4802 28.4488C61.4802 28.2764 61.4802 27.9891 61.4802 27.5869V26.6101C61.4802 25.9207 61.2497 25.3461 60.4431 25.3461C60.0399 25.3461 59.6942 25.5759 59.4061 25.8632C59.4061 25.6908 59.3485 25.3461 59.1181 25.3461C59.0028 25.3461 58.7724 25.461 58.7724 25.5759C58.83 25.6334 58.8876 25.7483 58.8876 25.9781V27.1273C58.8876 27.7593 58.8876 28.1615 58.8876 28.3913C59.0605 28.3913 59.1757 28.3913 59.3485 28.3913C59.4637 28.3913 59.4637 28.3339 59.4637 28.2189V26.1505C59.6366 25.9781 59.867 25.7483 60.2703 25.7483C60.6736 25.7483 60.904 26.0356 60.904 26.5527L60.8464 28.3913ZM57.8506 25.8058C57.8506 25.4036 57.8506 25.4036 57.7354 25.4036C57.6201 25.4036 57.3321 25.4036 57.2169 25.461C57.2169 25.6334 57.2169 25.8058 57.2169 26.2654V27.4145C57.2169 27.8167 57.2169 28.2189 57.2169 28.5062C57.3897 28.5062 57.5625 28.5062 57.6778 28.4488C57.793 28.4488 57.8506 28.3913 57.8506 28.2764V25.8058ZM57.5625 23.9671C57.3897 23.9671 57.2169 24.082 57.2169 24.3119C57.2169 24.5417 57.3897 24.6566 57.5625 24.6566C57.793 24.6566 57.9082 24.4842 57.9082 24.3119C57.9082 24.082 57.793 23.9671 57.5625 23.9671ZM52.8383 25.3461C52.7231 25.3461 52.4351 25.4036 52.3198 25.5185C52.3774 25.6908 52.4927 26.0356 52.7231 26.5527C52.9536 27.2996 53.2416 28.104 53.3569 28.5062C53.4721 28.5062 53.5873 28.4488 53.7025 28.4488C53.7601 28.4488 53.8177 28.3913 53.8754 28.2764C53.9906 27.8742 54.3939 26.7251 54.5667 26.3229C54.7972 27.1847 54.97 27.6444 55.2581 28.5062C55.3733 28.5062 55.4885 28.5062 55.6037 28.4488C55.7189 28.3913 55.7766 28.3339 55.7766 28.2189C56.1222 27.2996 56.3527 26.6676 56.6407 25.8058C56.756 25.5759 56.756 25.461 56.6407 25.4036C56.5255 25.3461 56.4103 25.3461 56.2375 25.3461C56.1222 25.6908 55.9494 26.3229 55.4309 27.7018C55.1428 26.7825 54.97 26.1505 54.7972 25.6908C54.7395 25.5185 54.7395 25.4036 54.6243 25.4036C54.5091 25.4036 54.2786 25.461 54.221 25.5185C54.221 25.5759 54.2786 25.6334 54.2786 25.6908C54.0482 26.3803 53.8754 26.84 53.5873 27.7593C53.2992 26.84 53.1264 26.093 52.896 25.461C52.9536 25.4036 52.896 25.3461 52.8383 25.3461ZM50.4762 25.7483C51.11 25.7483 51.398 26.3229 51.398 26.9549C51.398 27.8167 50.9948 28.1615 50.5339 28.1615C50.0153 28.1615 49.6121 27.7593 49.6121 26.8974C49.6121 26.1505 50.0153 25.7483 50.4762 25.7483ZM50.5339 25.3461C49.6121 25.3461 48.9783 26.0356 48.9783 26.9549C48.9783 27.7593 49.4968 28.5062 50.4762 28.5062C51.398 28.5062 51.9742 27.8167 51.9742 26.8974C51.9742 26.0356 51.4556 25.3461 50.5339 25.3461ZM46.9043 25.6334C47.0195 25.6908 47.0771 25.8632 47.0771 26.093V27.2422C47.0771 27.8742 47.0771 28.2764 47.0771 28.5062C47.25 28.5062 47.3652 28.5062 47.538 28.5062C47.6532 28.5062 47.6532 28.4488 47.6532 28.3339V26.7825C47.6532 26.6101 47.6532 26.5527 47.7109 26.4378C47.8261 26.093 48.0565 25.9781 48.2294 25.9781C48.3446 25.9781 48.4022 25.9781 48.5174 26.0356C48.575 26.0356 48.6903 25.9207 48.6903 25.8058C48.7479 25.7483 48.7479 25.5759 48.6903 25.5185C48.6327 25.461 48.5174 25.4036 48.4022 25.4036C48.0565 25.4036 47.7685 25.6334 47.538 26.093C47.538 25.6334 47.4228 25.4036 47.1923 25.4036C47.1347 25.3461 46.9619 25.5185 46.9043 25.6334ZM44.1965 28.9659C44.1965 28.7361 44.3694 28.5637 44.5422 28.4488C44.5998 28.3913 44.715 28.3913 44.8303 28.3913C45.0031 28.3913 45.2335 28.3913 45.5216 28.4488C45.9249 28.5062 46.0401 28.6786 46.0401 28.9084C46.0401 29.3106 45.6368 29.5404 45.1183 29.5404C44.6574 29.5404 44.1965 29.3681 44.1965 28.9659ZM44.9455 25.6908C45.3488 25.6908 45.5216 26.0356 45.5216 26.4378C45.5216 26.84 45.3488 27.1847 44.9455 27.1847C44.5998 27.1847 44.3117 26.8974 44.3117 26.4952C44.3694 25.9781 44.5998 25.6908 44.9455 25.6908ZM45.0031 25.3461C44.3117 25.3461 43.7932 25.8058 43.7932 26.4378C43.7932 26.84 44.0237 27.1847 44.3694 27.3571C44.2541 27.472 44.0813 27.5869 43.9661 27.7018C43.9085 27.7018 43.9085 27.7593 43.9085 27.7593C43.9085 27.9891 44.0813 28.2189 44.3117 28.2764C43.9661 28.4488 43.678 28.7361 43.678 29.0233C43.678 29.483 44.1389 29.9426 45.0031 29.9426C45.8097 29.9426 46.5586 29.483 46.5586 28.7361C46.5586 28.3339 46.3282 27.9891 45.752 27.9317C45.5216 27.9317 45.2335 27.9317 44.8879 27.8742C44.5998 27.8742 44.4846 27.7593 44.4846 27.6444C44.4846 27.5869 44.5998 27.5295 44.6574 27.4145C44.7726 27.472 44.7726 27.472 44.9455 27.472C45.5216 27.472 46.0977 27.1273 46.0977 26.3803C46.0977 26.208 46.0401 26.0356 45.9825 25.8632C46.0401 25.8632 46.1553 25.8632 46.2129 25.8632C46.4434 25.8632 46.5586 25.7483 46.5586 25.5185C46.5586 25.461 46.5586 25.4036 46.5586 25.4036C46.4434 25.461 46.2706 25.461 46.0977 25.461C45.9249 25.461 45.752 25.4036 45.5792 25.3461C45.3488 25.4036 45.1759 25.3461 45.0031 25.3461ZM40.1061 25.6334C40.2213 25.6908 40.2789 25.8632 40.2789 26.093V27.2422C40.2789 27.8742 40.2789 28.2764 40.2789 28.5062C40.4517 28.5062 40.567 28.5062 40.7398 28.5062C40.855 28.5062 40.855 28.4488 40.855 28.3339V26.7825C40.855 26.6101 40.855 26.5527 40.9126 26.4378C41.0278 26.093 41.2583 25.9781 41.4311 25.9781C41.5464 25.9781 41.604 25.9781 41.7192 26.0356C41.7768 26.0356 41.892 25.9207 41.9496 25.8058C42.0073 25.7483 42.0073 25.5759 41.9496 25.5185C41.892 25.461 41.7768 25.4036 41.6616 25.4036C41.3159 25.4036 41.0278 25.6334 40.7974 26.093C40.7974 25.6334 40.6822 25.4036 40.4517 25.4036C40.3941 25.3461 40.1637 25.5185 40.1061 25.6334ZM38.032 25.7483C38.6658 25.7483 38.9538 26.3229 38.9538 26.9549C38.9538 27.8167 38.5505 28.1615 38.0896 28.1615C37.5711 28.1615 37.1678 27.7593 37.1678 26.8974C37.1102 26.1505 37.5135 25.7483 38.032 25.7483ZM38.032 25.3461C37.1102 25.3461 36.4765 26.0356 36.4765 26.9549C36.4765 27.7593 36.995 28.5062 37.9744 28.5062C38.8962 28.5062 39.4723 27.8167 39.4723 26.8974C39.5299 26.0356 39.0114 25.3461 38.032 25.3461ZM36.246 23.7373C36.0156 23.7373 35.7275 23.7948 35.4971 24.0246C35.209 24.3119 34.9786 24.7141 34.9786 25.461C34.8057 25.5185 34.6905 25.5759 34.6329 25.6908C34.6329 25.8058 34.7481 25.8632 34.9786 25.8632C34.9786 26.84 34.9786 27.7018 34.9786 28.3913C34.9786 28.5062 34.9786 28.5062 35.0938 28.5062C35.209 28.5062 35.4971 28.5062 35.6123 28.4488C35.6123 28.0466 35.6123 26.5527 35.6123 25.8632C36.0156 25.8632 36.3037 25.8632 36.3613 25.8058C36.4189 25.7483 36.5341 25.6334 36.5341 25.461C36.3613 25.461 35.7275 25.461 35.6123 25.461C35.6123 24.4842 35.9004 24.197 36.246 24.197C36.3037 24.197 36.4189 24.197 36.4765 24.2544C36.6493 24.2544 36.7645 24.082 36.7069 23.9671C36.6493 23.7948 36.4189 23.7373 36.246 23.7373ZM30.6577 28.9659C30.6577 28.7361 30.8305 28.5637 31.0033 28.4488C31.0609 28.3913 31.1762 28.3913 31.2914 28.3913C31.4642 28.3913 31.6947 28.3913 31.9827 28.4488C32.386 28.5062 32.5012 28.6786 32.5012 28.9084C32.5012 29.3106 32.098 29.5404 31.5795 29.5404C31.0609 29.5404 30.6577 29.3681 30.6577 28.9659ZM31.4066 25.6908C31.8099 25.6908 31.9827 26.0356 31.9827 26.4378C31.9827 26.84 31.8099 27.1847 31.4066 27.1847C31.0609 27.1847 30.7729 26.8974 30.7729 26.4952C30.8305 25.9781 31.0609 25.6908 31.4066 25.6908ZM31.4066 25.3461C30.7153 25.3461 30.1968 25.8058 30.1968 26.4378C30.1968 26.84 30.4272 27.1847 30.7729 27.3571C30.6577 27.472 30.4848 27.5869 30.3696 27.7018C30.312 27.7018 30.312 27.7593 30.312 27.7593C30.312 27.9891 30.4848 28.2189 30.7153 28.2764C30.3696 28.4488 30.0815 28.7361 30.0815 29.0233C30.0815 29.483 30.5424 29.9426 31.4066 29.9426C32.2132 29.9426 32.9621 29.483 32.9621 28.7361C32.9621 28.3339 32.7317 27.9891 32.1556 27.9317C31.9251 27.9317 31.6371 27.9317 31.2914 27.8742C31.0033 27.8742 30.8881 27.7593 30.8881 27.6444C30.8881 27.5869 31.0033 27.5295 31.0609 27.4145C31.1762 27.472 31.1762 27.472 31.349 27.472C31.9251 27.472 32.5012 27.1273 32.5012 26.3803C32.5012 26.208 32.4436 26.0356 32.386 25.8632C32.4436 25.8632 32.5589 25.8632 32.6165 25.8632C32.8469 25.8632 32.9621 25.7483 32.9621 25.5185C32.9621 25.461 32.9621 25.4036 32.9621 25.4036C32.8469 25.461 32.6741 25.461 32.5012 25.461C32.3284 25.461 32.1556 25.4036 31.9827 25.3461C31.8099 25.4036 31.5795 25.3461 31.4066 25.3461ZM28.8717 28.3913C28.8717 28.4488 28.8717 28.5062 28.9869 28.5062C29.1597 28.5062 29.3326 28.4488 29.5054 28.4488C29.5054 28.2764 29.5054 27.9891 29.5054 27.5869V26.6101C29.5054 25.9207 29.275 25.3461 28.4684 25.3461C28.0651 25.3461 27.7194 25.5759 27.4314 25.8632C27.4314 25.6908 27.3738 25.3461 27.1433 25.3461C27.0281 25.3461 26.7976 25.461 26.74 25.5759C26.7976 25.6334 26.8553 25.7483 26.8553 25.9781V27.1273C26.8553 27.7593 26.8553 28.1615 26.8553 28.3913C27.0281 28.3913 27.1433 28.3913 27.3162 28.3913C27.4314 28.3913 27.489 28.3339 27.489 28.2189V26.1505C27.6618 25.9781 27.8923 25.7483 28.2956 25.7483C28.6988 25.7483 28.9293 26.0356 28.9293 26.5527L28.8717 28.3913ZM25.8759 25.8058C25.8759 25.4036 25.8759 25.4036 25.7606 25.4036C25.6454 25.4036 25.3573 25.4036 25.2421 25.461C25.2421 25.6334 25.2997 25.8058 25.2997 26.2654V27.4145C25.2997 27.8167 25.2997 28.2189 25.2997 28.5062C25.4726 28.5062 25.6454 28.5062 25.7606 28.4488C25.8759 28.4488 25.9335 28.3913 25.9335 28.2764V25.8058H25.8759ZM25.6454 23.9671C25.4726 23.9671 25.2997 24.082 25.2997 24.3119C25.2997 24.5417 25.415 24.6566 25.6454 24.6566C25.8182 24.6566 25.9911 24.4842 25.9911 24.3119C25.9335 24.082 25.8182 23.9671 25.6454 23.9671ZM24.7236 27.9317C24.6084 27.9891 24.3779 28.104 24.2051 28.104C23.9747 28.104 23.7442 27.9891 23.6866 27.5869C23.629 27.2996 23.629 26.5527 23.6866 25.8632C24.2051 25.8632 24.2051 25.8632 24.4355 25.8632C24.5508 25.8632 24.7236 25.8058 24.7812 25.461H23.6866C23.6866 25.2886 23.6866 25.1163 23.6866 24.9439C23.5138 24.9439 23.3985 25.0588 23.3409 25.1163C23.2257 25.2312 22.8224 25.5759 22.7648 25.7483C22.7648 25.8058 22.88 25.9207 23.1105 25.9207V27.7018C23.1105 28.2189 23.3409 28.6211 23.9747 28.6211C24.2051 28.6211 24.4932 28.5637 24.6084 28.4488C24.7236 28.2764 24.7812 28.104 24.7236 27.9317ZM21.5549 28.3913C21.5549 28.4488 21.5549 28.5062 21.6702 28.5062C21.843 28.5062 22.0158 28.4488 22.1887 28.4488C22.1887 28.2764 22.1887 27.9891 22.1887 27.5869V26.6101C22.1887 25.9207 21.9582 25.3461 21.1517 25.3461C20.7484 25.3461 20.4027 25.5759 20.1146 25.8632C20.1146 25.6908 20.057 25.3461 19.8266 25.3461C19.7114 25.3461 19.4809 25.461 19.4809 25.5759C19.5385 25.6334 19.5961 25.7483 19.5961 25.9781V27.1273C19.5961 27.7593 19.5961 28.1615 19.5961 28.3913C19.769 28.3913 19.8842 28.3913 20.057 28.3913C20.1722 28.3913 20.2299 28.3339 20.2299 28.2189V26.1505C20.4027 25.9781 20.6331 25.7483 21.0364 25.7483C21.4397 25.7483 21.6702 26.0356 21.6702 26.5527L21.5549 28.3913ZM15.9666 27.4145C15.9666 28.104 16.3122 28.5637 17.0036 28.5637C17.1764 28.5637 17.2916 28.5062 17.4645 28.4488C17.6373 28.3913 17.8101 28.2764 18.0406 28.0466C18.0982 28.3339 18.2134 28.5637 18.5015 28.5637C18.6743 28.5637 18.7896 28.3913 18.7896 28.2189C18.6167 28.1615 18.5015 28.104 18.5015 27.7593V26.6676C18.5015 26.093 18.5015 25.5759 18.5015 25.4036C18.3287 25.4036 18.2134 25.4036 17.983 25.461C17.8678 25.5185 17.8678 25.5185 17.8678 25.6908V27.7593C17.7525 27.9317 17.4645 28.104 17.1764 28.104C16.8884 28.104 16.4851 27.9891 16.4851 27.2996C16.4851 26.84 16.4851 26.3229 16.4851 25.8632C16.4851 25.461 16.4851 25.461 16.3698 25.461C16.2546 25.461 15.9666 25.5185 15.8513 25.5185C15.8513 25.6908 15.8513 25.8632 15.8513 26.3229V27.4145H15.9666ZM13.7197 25.7483C14.3534 25.7483 14.6415 26.3229 14.6415 26.9549C14.6415 27.8167 14.2382 28.1615 13.7773 28.1615C13.2588 28.1615 12.8555 27.7593 12.8555 26.8974C12.8555 26.1505 13.2588 25.7483 13.7197 25.7483ZM13.7773 25.3461C12.8555 25.3461 12.2218 26.0356 12.2218 26.9549C12.2218 27.7593 12.7403 28.5062 13.7197 28.5062C14.6415 28.5062 15.2176 27.8167 15.2176 26.8974C15.2176 26.0356 14.7567 25.3461 13.7773 25.3461ZM11.8185 27.9317C11.6456 27.9891 11.3576 28.0466 11.0695 28.0466C10.6086 28.0466 9.91728 27.8167 9.91728 26.8974C9.91728 26.208 10.3206 25.7483 10.9543 25.7483C11.1848 25.7483 11.4152 25.8058 11.588 25.9207C11.7609 25.9207 11.8185 25.7483 11.8185 25.5759C11.7033 25.461 11.4152 25.3461 10.9543 25.3461C10.0325 25.3461 9.28355 26.0356 9.28355 27.0123C9.28355 28.2189 10.1477 28.5637 10.8391 28.5637C11.1271 28.5637 11.4152 28.5062 11.588 28.3913C11.7609 28.2764 11.8761 28.104 11.8185 27.9317ZM8.99549 27.9317C8.82265 27.9891 8.53459 28.0466 8.24653 28.0466C7.78563 28.0466 7.09429 27.8167 7.09429 26.8974C7.09429 26.208 7.49757 25.7483 8.13131 25.7483C8.36176 25.7483 8.5922 25.8058 8.76504 25.9207C8.93788 25.9207 8.99549 25.7483 8.99549 25.5759C8.88027 25.461 8.5922 25.3461 8.13131 25.3461C7.20951 25.3461 6.46056 26.0356 6.46056 27.0123C6.46056 28.2189 7.32474 28.5637 8.01608 28.5637C8.30414 28.5637 8.5922 28.5062 8.76504 28.3913C8.93788 28.2764 8.99549 28.104 8.99549 27.9317ZM3.3495 26.6676C3.63756 26.0356 3.86801 25.461 4.09846 24.8864C4.21368 25.1163 4.44413 25.6908 4.7898 26.6676H3.3495ZM4.96264 27.1273C5.19309 27.6444 5.30831 27.9317 5.48115 28.3339C5.53876 28.5062 5.59637 28.5637 5.7116 28.5637C5.82682 28.5637 6.11488 28.5637 6.23011 28.5062C6.11488 28.2764 5.94205 27.8167 5.65398 27.1847C5.36592 26.5527 4.7898 25.0588 4.44413 24.3693C4.44413 24.3119 4.38652 24.2544 4.27129 24.2544C4.21368 24.2544 3.92562 24.3119 3.8104 24.3119L3.86801 24.4842C3.63756 25.0014 2.48532 27.6444 2.08203 28.5062V28.5637C2.19726 28.6211 2.37009 28.6211 2.48532 28.6211C2.54293 28.6211 2.60054 28.6211 2.65815 28.5637C2.77338 28.3339 3.00383 27.8167 3.23427 27.2422H4.96264V27.1273Z" fill="#3D4549"></path><defs><linearGradient id="paint0_linear_1166_2500" x1="33.7523" y1="0.132012" x2="33.7523" y2="18.0156" gradientUnits="userSpaceOnUse"><stop stop-color="#F58360"></stop><stop offset="0.3383" stop-color="#F36C45"></stop><stop offset="0.5449" stop-color="#D25050"></stop><stop offset="0.8391" stop-color="#A92057"></stop></linearGradient><linearGradient id="paint1_linear_1166_2500" x1="11.3862" y1="0.132059" x2="11.3862" y2="18.0157" gradientUnits="userSpaceOnUse"><stop stop-color="#F58360"></stop><stop offset="0.3383" stop-color="#F36C45"></stop><stop offset="0.5449" stop-color="#D25050"></stop><stop offset="0.8391" stop-color="#A92057"></stop></linearGradient><linearGradient id="paint2_linear_1166_2500" x1="94.1619" y1="0.132023" x2="94.1619" y2="18.0156" gradientUnits="userSpaceOnUse"><stop stop-color="#F58360"></stop><stop offset="0.3383" stop-color="#F36C45"></stop><stop offset="0.5449" stop-color="#D25050"></stop><stop offset="0.8391" stop-color="#A92057"></stop></linearGradient><linearGradient id="paint3_linear_1166_2500" x1="57.5236" y1="0.13211" x2="57.5236" y2="18.0157" gradientUnits="userSpaceOnUse"><stop stop-color="#F58360"></stop><stop offset="0.3383" stop-color="#F36C45"></stop><stop offset="0.5449" stop-color="#D25050"></stop><stop offset="0.8391" stop-color="#A92057"></stop></linearGradient><linearGradient id="paint4_linear_1166_2500" x1="18.1847" y1="0.132111" x2="18.1847" y2="18.0157" gradientUnits="userSpaceOnUse"><stop stop-color="#F58360"></stop><stop offset="0.3383" stop-color="#F36C45"></stop><stop offset="0.5449" stop-color="#D25050"></stop><stop offset="0.8391" stop-color="#A92057"></stop></linearGradient><linearGradient id="paint5_linear_1166_2500" x1="77.0905" y1="0.132088" x2="77.0905" y2="18.0157" gradientUnits="userSpaceOnUse"><stop stop-color="#F58360"></stop><stop offset="0.3383" stop-color="#F36C45"></stop><stop offset="0.5449" stop-color="#D25050"></stop><stop offset="0.8391" stop-color="#A92057"></stop></linearGradient></defs></svg>