<svg xmlns="http://www.w3.org/2000/svg" width="43" height="50" viewBox="0 0 43 50" fill="none"><g clip-path="url(#clip0_1166_2510)"><g opacity="0.9"><g opacity="0.9"><g opacity="0.9"><path opacity="0.9" d="M27.0339 20.5334H2.01172V41.0223H27.0339V20.5334Z" fill="url(#paint0_linear_1166_2510)"></path></g></g></g><g opacity="0.9"><g opacity="0.9"><g opacity="0.9"><path opacity="0.9" d="M42.8567 10.1777H17.8789V40.9777H42.8567V10.1777Z" fill="url(#paint1_linear_1166_2510)"></path></g></g></g><g opacity="0.9"><g opacity="0.9"><path opacity="0.9" d="M6.59002 43.3777V47.3332L3.30113 43.3777H1.87891V49.911H3.52335V45.9555L6.81224 49.911H8.19002V43.3777H6.59002Z" fill="black"></path><g opacity="0.9"><path opacity="0.9" d="M11.6132 47.0221C11.6132 47.9555 12.1021 48.5332 13.0354 48.5332C14.0132 48.5332 14.4576 47.9555 14.4576 47.0221V43.4221H16.0576V47.1555C16.0576 48.711 14.991 50.0443 12.991 50.0443C11.0354 50.0443 9.96875 48.8443 9.96875 47.1555V43.4221H11.5687V47.0221H11.6132Z" fill="black"></path><path opacity="0.9" d="M23.7011 45.911L21.7456 48.2666H21.4789L19.5234 45.911V49.911H17.8789V43.3777H19.3011L21.6122 46.0888L23.9234 43.3777H25.3456V49.911H23.7011V45.911Z" fill="black"></path><path opacity="0.9" d="M27.2148 49.911V43.3777H32.4593V44.7999H28.7704V45.911H31.7926V47.2444H28.7704V48.4888H32.4593V49.911H27.2148Z" fill="black"></path><path opacity="0.9" d="M34.0586 43.3777H37.1697C38.6808 43.3777 39.703 44.0888 39.703 45.5555C39.703 46.5332 39.0364 47.2444 38.1475 47.511L40.0586 49.5999V49.911H38.3253L36.3253 47.5999H35.6586V49.911H34.0586V43.3777ZM35.6586 44.7999V46.3999H37.1253C37.6586 46.3999 38.0142 46.0888 38.0142 45.5999C38.0142 45.111 37.6586 44.7999 37.1253 44.7999H35.6586Z" fill="black"></path><path opacity="0.9" d="M42.9477 43.3777H41.3477V49.911H42.9477V43.3777Z" fill="black"></path></g></g></g><g opacity="0.9"><g opacity="0.9"><g opacity="0.9"><path opacity="0.9" d="M11.2552 20.5334H1.92188V41.0223H11.2552V20.5334Z" fill="url(#paint2_linear_1166_2510)"></path></g></g></g><g opacity="0.9"><g opacity="0.9"><g opacity="0.9"><path opacity="0.9" d="M27.1224 10.1777H17.7891V40.9777H27.1224V10.1777Z" fill="url(#paint3_linear_1166_2510)"></path></g></g></g><g opacity="0.9"><g opacity="0.9"><g opacity="0.9"><g opacity="0.9"><g opacity="0.9"><g opacity="0.9"><path opacity="0.9" d="M5.78932 39.1111H0.722656V40.3111H5.78932V39.1111Z" fill="url(#paint4_linear_1166_2510)"></path></g></g></g><g opacity="0.9"><g opacity="0.9"><g opacity="0.9"><path opacity="0.9" d="M5.78932 41.0222H0.722656V42.2222H5.78932V41.0222Z" fill="url(#paint5_linear_1166_2510)"></path></g></g></g><g opacity="0.9"><g opacity="0.9"><g opacity="0.9"><path opacity="0.9" d="M5.78932 37.1555H0.722656V38.3555H5.78932V37.1555Z" fill="url(#paint6_linear_1166_2510)"></path></g></g></g></g></g></g><g opacity="0.9"><g opacity="0.9"><g opacity="0.9"><path opacity="0.9" d="M42.8997 0H33.5664V40.9778H42.8997V0Z" fill="url(#paint7_linear_1166_2510)"></path></g></g></g></g><defs><linearGradient id="paint0_linear_1166_2510" x1="14.4916" y1="41.0062" x2="14.4916" y2="20.5205" gradientUnits="userSpaceOnUse"><stop stop-color="#00549F"></stop><stop offset="1" stop-color="#00AEEF"></stop></linearGradient><linearGradient id="paint1_linear_1166_2510" x1="30.3577" y1="40.9924" x2="30.3577" y2="10.1875" gradientUnits="userSpaceOnUse"><stop stop-color="#00549F"></stop><stop offset="1" stop-color="#00AEEF"></stop></linearGradient><linearGradient id="paint2_linear_1166_2510" x1="6.5952" y1="40.9957" x2="6.59519" y2="20.5196" gradientUnits="userSpaceOnUse"><stop stop-color="#0A4E9B"></stop><stop offset="0.6" stop-color="#0099D9"></stop><stop offset="1" stop-color="#00A6E9"></stop></linearGradient><linearGradient id="paint3_linear_1166_2510" x1="22.4487" y1="40.9924" x2="22.4487" y2="10.1875" gradientUnits="userSpaceOnUse"><stop stop-color="#0A4E9B"></stop><stop offset="0.6" stop-color="#0099D9"></stop><stop offset="1" stop-color="#00A6E9"></stop></linearGradient><linearGradient id="paint4_linear_1166_2510" x1="3.25879" y1="42.183" x2="3.25879" y2="37.1462" gradientUnits="userSpaceOnUse"><stop stop-color="#1A4797"></stop><stop offset="1" stop-color="#00AEEF"></stop></linearGradient><linearGradient id="paint5_linear_1166_2510" x1="3.25148" y1="42.1891" x2="3.25148" y2="37.1445" gradientUnits="userSpaceOnUse"><stop stop-color="#1A4797"></stop><stop offset="1" stop-color="#00AEEF"></stop></linearGradient><linearGradient id="paint6_linear_1166_2510" x1="3.25947" y1="42.1819" x2="3.25947" y2="37.1441" gradientUnits="userSpaceOnUse"><stop stop-color="#1A4797"></stop><stop offset="1" stop-color="#00AEEF"></stop></linearGradient><linearGradient id="paint7_linear_1166_2510" x1="38.2615" y1="40.9928" x2="38.2615" y2="-0.00107531" gradientUnits="userSpaceOnUse"><stop stop-color="#0A4E9B"></stop><stop offset="0.6" stop-color="#0099D9"></stop><stop offset="1" stop-color="#00A6E9"></stop></linearGradient><clipPath id="clip0_1166_2510"><rect width="42.2667" height="50" fill="white" transform="translate(0.722656)"></rect></clipPath></defs></svg>